<?xml version="1.0" encoding="utf-8"?>
<!-- Created with "sPlan" (http://www.abacom-online.de) -->
<svg version="1.1" baseProfile="full"
xmlns="http://www.w3.org/2000/svg"
width="54mm" height="41mm"
viewBox="0 0 549 411">
<title>audio</title>
<defs>
<style type="text/css">
<![CDATA[
polyline {stroke-linecap:round; stroke-linejoin:round}
polygon {stroke-linecap:round; stroke-linejoin:round}
path {stroke-linecap:round; stroke-linejoin:round}
circle {stroke-linecap:round; stroke-linejoin:round}
]]>
</style>
</defs>
<path fill="rgb(255,255,255)" stroke="none" stroke-width="2" d=" M 185 125 L 235 125 235 175 185 175 185 125 Z" />
<polyline points="210.00 200.00 210.00 175.00" fill="none" stroke="rgb(0,0,0)" stroke-width="2" />
<polyline points="210.00 175.00 185.00 120.00" fill="none" stroke="rgb(0,0,0)" stroke-width="4" />
<polyline points="185.00 125.00 160.00 125.00 160.00 100.00" fill="none" stroke="rgb(0,0,0)" stroke-width="2" />
<polyline points="235.00 125.00 260.00 125.00 260.00 100.00" fill="none" stroke="rgb(0,0,0)" stroke-width="2" />
<circle cx="210.00" cy="174.99" r="5.00" fill="rgb(255,255,255)" stroke="rgb(0,0,0)" stroke-width="2" />
<path fill="rgb(0,0,0)" stroke="rgb(0,0,0)" stroke-width="0" d=" M 265.81 114.77 L 265.88 113.55 266.08 112.45 266.42 111.45 266.90 110.57 267.52 109.80 268.24 109.15 269.04 108.65 269.92 108.29 270.88 108.07 271.92 108.00 272.61 108.03 273.28 108.14 273.92 108.30 274.52 108.54 275.11 108.84 275.65 109.21 276.13 109.63 276.57 110.10 276.94 110.62 277.27 111.20 277.53 111.82 277.74 112.47 277.89 113.15 277.98 113.87 278.01 114.62 277.97 115.38 277.88 116.11 277.72 116.80 277.50 117.46 277.22 118.09 276.88 118.68 276.49 119.20 276.04 119.66 275.55 120.07 275.00 120.41 274.41 120.70 273.81 120.92 273.19 121.07 272.56 121.17 271.90 121.20 271.20 121.17 270.52 121.06 269.88 120.89 269.26 120.64 268.68 120.33 268.14 119.96 267.66 119.53 267.23 119.06 266.86 118.53 266.54 117.95 266.27 117.35 266.07 116.72 265.92 116.09 265.84 115.43 265.81 114.77 Z M 267.41 114.78 L 267.46 115.64 267.61 116.42 267.86 117.13 268.22 117.76 268.68 118.31 269.22 118.78 269.81 119.14 270.45 119.39 271.14 119.55 271.89 119.60 272.65 119.55 273.35 119.39 274.00 119.13 274.59 118.77 275.13 118.30 275.59 117.74 275.95 117.09 276.20 116.35 276.35 115.52 276.41 114.61 276.39 114.02 276.32 113.46 276.21 112.93 276.06 112.44 275.87 111.97 275.63 111.54 275.35 111.15 275.03 110.80 274.68 110.49 274.28 110.22 273.85 110.00 273.40 109.82 272.93 109.70 272.44 109.62 271.93 109.60 271.21 109.65 270.53 109.79 269.90 110.03 269.30 110.36 268.75 110.80 268.26 111.34 267.89 112.01 267.62 112.81 267.46 113.73 267.41 114.78 Z M 280.20 121.00 L 280.21 108.20 281.92 108.20 288.60 118.34 288.61 108.20 290.21 108.20 290.20 121.00 288.49 121.00 281.81 110.86 281.80 121.00 Z" />
<path fill="rgb(0,0,0)" stroke="rgb(0,0,0)" stroke-width="0" d=" M 120.81 114.77 L 120.88 113.55 121.08 112.45 121.42 111.45 121.90 110.57 122.52 109.80 123.24 109.15 124.04 108.65 124.92 108.29 125.88 108.07 126.92 108.00 127.61 108.03 128.28 108.14 128.92 108.30 129.52 108.54 130.11 108.84 130.65 109.21 131.13 109.63 131.57 110.10 131.94 110.62 132.27 111.20 132.53 111.82 132.74 112.47 132.89 113.15 132.98 113.87 133.01 114.62 132.97 115.38 132.88 116.11 132.72 116.80 132.50 117.46 132.22 118.09 131.88 118.68 131.49 119.20 131.04 119.66 130.55 120.07 130.00 120.41 129.41 120.70 128.81 120.92 128.19 121.07 127.56 121.17 126.90 121.20 126.20 121.17 125.52 121.06 124.88 120.89 124.26 120.64 123.68 120.33 123.14 119.96 122.66 119.53 122.23 119.06 121.86 118.53 121.54 117.95 121.27 117.35 121.07 116.72 120.92 116.09 120.84 115.43 120.81 114.77 Z M 122.41 114.78 L 122.46 115.64 122.61 116.42 122.86 117.13 123.22 117.76 123.68 118.31 124.22 118.78 124.81 119.14 125.45 119.39 126.14 119.55 126.89 119.60 127.65 119.55 128.35 119.39 129.00 119.13 129.59 118.77 130.13 118.30 130.59 117.74 130.95 117.09 131.20 116.35 131.35 115.52 131.41 114.61 131.39 114.02 131.32 113.46 131.21 112.93 131.06 112.44 130.87 111.97 130.63 111.54 130.35 111.15 130.03 110.80 129.68 110.49 129.28 110.22 128.85 110.00 128.40 109.82 127.93 109.70 127.44 109.62 126.93 109.60 126.21 109.65 125.53 109.79 124.90 110.03 124.30 110.36 123.75 110.80 123.26 111.34 122.89 112.01 122.62 112.81 122.46 113.73 122.41 114.78 Z M 135.20 121.00 L 135.21 108.20 143.81 108.20 143.81 109.80 136.81 109.80 136.81 113.60 142.81 113.60 142.81 115.20 136.81 115.20 136.80 121.00 Z M 146.00 121.00 L 146.01 108.20 154.61 108.20 154.61 109.80 147.61 109.80 147.61 113.60 153.61 113.60 153.61 115.20 147.61 115.20 147.60 121.00 Z" />
<path fill="rgb(0,0,0)" stroke="rgb(0,0,0)" stroke-width="0" d=" M 135.96 148.92 L 137.88 148.92 137.95 149.37 138.05 149.79 138.17 150.17 138.32 150.52 138.50 150.84 138.72 151.13 138.98 151.40 139.28 151.64 139.62 151.86 140.01 152.06 140.43 152.22 140.87 152.35 141.33 152.45 141.81 152.50 142.31 152.52 142.76 152.51 143.18 152.46 143.58 152.39 143.96 152.30 144.32 152.17 144.65 152.02 144.95 151.85 145.21 151.65 145.43 151.44 145.62 151.21 145.77 150.96 145.89 150.71 145.98 150.45 146.03 150.19 146.04 149.92 146.03 149.65 145.99 149.40 145.93 149.16 145.84 148.93 145.73 148.72 145.57 148.52 145.37 148.33 145.11 148.16 144.79 148.00 144.42 147.85 144.11 147.74 143.67 147.62 143.11 147.47 142.43 147.30 141.63 147.11 140.81 146.92 140.11 146.72 139.51 146.54 139.01 146.35 138.62 146.17 138.20 145.93 137.83 145.66 137.51 145.38 137.22 145.07 136.99 144.74 136.79 144.39 136.64 144.02 136.54 143.64 136.47 143.24 136.45 142.83 136.48 142.37 136.56 141.92 136.69 141.49 136.88 141.07 137.12 140.66 137.41 140.27 137.75 139.93 138.14 139.62 138.58 139.35 139.06 139.12 139.59 138.93 140.13 138.79 140.70 138.68 141.30 138.62 141.91 138.60 142.58 138.62 143.22 138.69 143.83 138.80 144.41 138.95 144.95 139.15 145.45 139.39 145.90 139.67 146.31 139.99 146.66 140.35 146.97 140.76 147.23 141.19 147.43 141.65 147.58 142.13 147.68 142.63 147.73 143.16 145.81 143.16 145.72 142.66 145.56 142.22 145.34 141.82 145.06 141.48 144.73 141.19 144.32 140.95 143.84 140.76 143.30 140.63 142.68 140.55 141.99 140.52 141.27 140.55 140.64 140.63 140.09 140.76 139.62 140.94 139.24 141.18 138.92 141.45 138.68 141.75 138.51 142.07 138.41 142.41 138.37 142.77 138.40 143.09 138.47 143.38 138.59 143.64 138.76 143.88 138.98 144.10 139.30 144.32 139.77 144.53 140.40 144.74 141.18 144.96 142.12 145.18 143.06 145.39 143.87 145.59 144.55 145.79 145.10 145.97 145.51 146.14 145.99 146.40 146.41 146.69 146.78 147.00 147.10 147.33 147.37 147.70 147.58 148.09 147.75 148.50 147.87 148.93 147.94 149.39 147.96 149.87 147.94 150.35 147.85 150.82 147.72 151.28 147.52 151.73 147.27 152.17 146.97 152.58 146.63 152.95 146.23 153.29 145.78 153.58 145.29 153.84 144.76 154.06 144.21 154.22 143.63 154.34 143.02 154.42 142.39 154.44 141.60 154.41 140.86 154.34 140.17 154.21 139.54 154.03 138.96 153.79 138.43 153.51 137.95 153.17 137.51 152.79 137.13 152.35 136.79 151.85 136.51 151.32 136.28 150.76 136.12 150.17 136.01 149.56 135.96 148.92 Z M 150.12 150.12 L 152.04 149.88 152.15 150.38 152.30 150.83 152.50 151.22 152.73 151.57 153.01 151.86 153.33 152.10 153.69 152.28 154.09 152.41 154.53 152.49 155.01 152.52 155.61 152.48 156.14 152.37 156.62 152.19 157.05 151.93 157.42 151.60 157.73 151.21 157.97 150.77 158.15 150.28 158.25 149.74 158.28 149.16 158.25 148.60 158.16 148.10 158.00 147.64 157.77 147.24 157.48 146.88 157.13 146.58 156.71 146.34 156.22 146.17 155.67 146.07 155.05 146.04 154.66 146.05 154.29 146.09 153.95 146.16 153.65 146.25 153.37 146.37 153.11 146.52 152.87 146.67 152.66 146.85 152.46 147.03 152.29 147.24 150.37 147.00 152.05 139.08 159.49 139.08 159.49 141.00 153.61 141.00 152.78 145.23 153.32 144.83 153.87 144.52 154.44 144.30 155.01 144.16 155.59 144.12 156.35 144.18 157.05 144.34 157.71 144.62 158.31 145.00 158.87 145.50 159.35 146.08 159.73 146.72 159.99 147.43 160.15 148.20 160.20 149.04 160.16 149.84 160.01 150.59 159.77 151.31 159.43 151.98 159.00 152.60 158.37 153.26 157.66 153.78 156.86 154.15 155.97 154.37 155.01 154.44 154.21 154.39 153.47 154.25 152.79 154.01 152.17 153.68 151.62 153.26 151.14 152.75 150.75 152.19 150.45 151.56 150.24 150.87 150.12 150.12 Z" />
<path fill="rgb(0,0,0)" stroke="rgb(0,0,0)" stroke-width="0" d=" M 241.68 154.20 L 241.69 138.84 245.00 138.84 248.13 149.67 248.29 150.24 248.44 150.75 248.57 151.21 248.67 151.60 248.76 151.93 248.86 151.56 248.98 151.14 249.12 150.65 249.27 150.09 249.45 149.48 252.55 138.84 255.85 138.84 255.84 154.20 253.92 154.20 253.93 140.76 250.06 154.20 247.46 154.20 243.61 140.76 243.60 154.20 Z M 259.44 154.20 L 259.45 138.84 261.37 138.84 261.37 145.08 269.53 145.08 269.53 138.84 271.45 138.84 271.44 154.20 269.52 154.20 269.53 147.00 261.37 147.00 261.36 154.20 Z M 273.36 154.20 L 273.36 152.39 280.00 144.84 279.56 144.84 279.15 144.84 278.76 144.84 278.39 144.84 278.04 144.84 273.85 144.84 273.85 142.92 282.73 142.92 282.73 144.55 276.85 151.25 275.95 152.28 276.41 152.28 276.87 152.28 277.31 152.28 277.75 152.28 278.17 152.28 282.96 152.28 282.96 154.20 Z" />
<polygon points="360 160 380 130 340 130" fill="rgb(255,255,255)" stroke="rgb(0,0,0)" stroke-width="2" stroke-dasharray="4,8" />
<polyline points="360.00 190.00 360.00 100.00" fill="none" stroke="rgb(0,0,0)" stroke-width="2" stroke-dasharray="4,8" />
<path fill="rgb(0,0,0)" stroke="rgb(0,0,0)" stroke-width="2" stroke-dasharray="4,8" d=" M 340 163 L 380 163 380 161 340 161 340 163 Z" />
<path fill="rgb(0,0,0)" stroke="rgb(0,0,0)" stroke-width="0" d=" M 386.68 165.20 L 386.70 149.84 391.99 149.84 392.68 149.85 393.29 149.88 393.84 149.92 394.32 149.98 394.74 150.06 395.25 150.20 395.73 150.38 396.18 150.60 396.60 150.86 396.99 151.16 397.45 151.59 397.87 152.07 398.23 152.60 398.54 153.17 398.81 153.79 399.03 154.44 399.19 155.14 399.31 155.87 399.38 156.63 399.41 157.44 399.39 158.12 399.34 158.77 399.26 159.39 399.14 159.98 399.00 160.54 398.82 161.06 398.63 161.54 398.42 161.99 398.19 162.40 397.94 162.77 397.68 163.11 397.41 163.42 397.13 163.70 396.84 163.95 396.54 164.17 396.22 164.36 395.88 164.53 395.51 164.69 395.12 164.82 394.70 164.94 394.26 165.03 393.79 165.11 393.30 165.16 392.78 165.19 392.23 165.20 Z M 388.60 163.28 L 392.00 163.28 392.60 163.27 393.15 163.24 393.65 163.18 394.09 163.10 394.47 163.00 394.82 162.88 395.13 162.74 395.42 162.59 395.67 162.41 395.90 162.22 396.18 161.92 396.44 161.57 396.68 161.19 396.89 160.77 397.07 160.31 397.22 159.81 397.34 159.27 397.42 158.69 397.47 158.07 397.49 157.41 397.46 156.50 397.36 155.69 397.20 154.96 396.97 154.32 396.67 153.77 396.33 153.30 395.96 152.89 395.56 152.55 395.14 152.27 394.68 152.07 394.30 151.96 393.84 151.87 393.30 151.81 392.67 151.77 391.96 151.76 388.62 151.76 Z M 408.52 165.20 L 406.60 165.20 406.61 153.23 406.32 153.49 405.99 153.75 405.62 154.01 405.23 154.27 404.79 154.53 404.35 154.77 403.93 154.99 403.53 155.19 403.14 155.35 402.77 155.49 402.77 153.68 403.40 153.37 403.99 153.04 404.56 152.68 405.09 152.29 405.59 151.88 406.04 151.46 406.44 151.05 406.78 150.64 407.07 150.24 407.30 149.84 408.54 149.84 Z M 413.09 157.64 L 413.11 156.60 413.18 155.64 413.29 154.75 413.45 153.95 413.66 153.22 413.91 152.57 414.20 151.99 414.53 151.49 414.91 151.05 415.34 150.68 415.80 150.38 416.32 150.14 416.88 149.97 417.48 149.87 418.14 149.84 418.62 149.86 419.09 149.92 419.54 150.02 419.97 150.16 420.38 150.33 420.76 150.55 421.10 150.80 421.41 151.09 421.69 151.41 421.93 151.76 422.14 152.15 422.33 152.57 422.51 153.03 422.68 153.51 422.82 154.03 422.95 154.61 423.05 155.26 423.11 155.98 423.16 156.77 423.17 157.64 423.14 158.68 423.08 159.64 422.96 160.52 422.81 161.32 422.60 162.04 422.36 162.69 422.07 163.27 421.73 163.79 421.35 164.23 420.93 164.60 420.46 164.90 419.95 165.14 419.39 165.31 418.78 165.41 418.12 165.44 417.26 165.38 416.49 165.21 415.78 164.91 415.16 164.50 414.61 163.98 414.06 163.07 413.63 161.99 413.33 160.72 413.15 159.27 413.09 157.64 Z M 415.01 157.64 L 415.04 159.00 415.15 160.16 415.33 161.11 415.58 161.86 415.90 162.41 416.28 162.81 416.69 163.12 417.13 163.34 417.61 163.48 418.12 163.52 418.63 163.48 419.11 163.34 419.55 163.12 419.96 162.81 420.34 162.40 420.67 161.86 420.92 161.11 421.10 160.15 421.21 159.00 421.25 157.64 421.21 156.32 421.11 155.18 420.94 154.24 420.70 153.49 420.38 152.93 420.01 152.51 419.60 152.18 419.15 151.95 418.65 151.81 418.11 151.76 417.60 151.80 417.13 151.92 416.70 152.13 416.30 152.42 415.94 152.79 415.61 153.40 415.35 154.20 415.16 155.17 415.05 156.31 415.01 157.64 Z" />
<path fill="rgb(0,0,0)" stroke="rgb(0,0,0)" stroke-width="0" d=" M 386.44 141.20 L 386.45 129.92 388.13 129.92 388.13 131.59 388.39 131.15 388.63 130.78 388.87 130.48 389.10 130.23 389.32 130.05 389.55 129.92 389.78 129.81 390.02 129.74 390.27 129.69 390.52 129.68 390.90 129.70 391.29 129.77 391.67 129.89 392.06 130.06 392.45 130.27 391.81 131.99 391.54 131.85 391.27 131.74 391.00 131.66 390.73 131.62 390.46 131.60 390.22 131.62 390.00 131.66 389.78 131.74 389.57 131.84 389.37 131.98 389.19 132.14 389.03 132.33 388.89 132.54 388.77 132.77 388.68 133.03 388.57 133.45 388.48 133.88 388.42 134.33 388.38 134.79 388.37 135.27 388.36 141.20 Z M 401.54 137.84 L 403.42 138.08 403.20 138.69 402.91 139.24 402.56 139.74 402.14 140.18 401.66 140.56 401.12 140.88 400.52 141.12 399.86 141.30 399.15 141.40 398.38 141.44 397.42 141.38 396.54 141.20 395.74 140.89 395.03 140.47 394.40 139.92 393.87 139.26 393.45 138.51 393.16 137.65 392.98 136.70 392.93 135.65 392.99 134.57 393.17 133.59 393.46 132.70 393.88 131.93 394.42 131.25 395.05 130.68 395.75 130.24 396.52 129.93 397.37 129.74 398.28 129.68 399.17 129.74 399.98 129.93 400.73 130.24 401.42 130.68 402.03 131.24 402.56 131.92 402.96 132.70 403.25 133.58 403.43 134.56 403.49 135.64 403.49 135.72 403.48 135.81 403.48 135.91 403.48 136.03 403.47 136.16 394.84 136.16 394.92 136.78 395.07 137.34 395.29 137.84 395.59 138.28 395.95 138.65 396.36 138.97 396.82 139.21 397.31 139.38 397.84 139.49 398.42 139.52 398.85 139.50 399.25 139.46 399.62 139.38 399.98 139.26 400.30 139.12 400.60 138.94 400.88 138.72 401.12 138.47 401.35 138.17 401.54 137.84 Z M 394.85 134.24 L 401.57 134.24 401.49 133.80 401.38 133.41 401.23 133.06 401.03 132.76 400.80 132.50 400.39 132.18 399.93 131.92 399.42 131.74 398.87 131.64 398.27 131.60 397.73 131.63 397.22 131.71 396.75 131.86 396.31 132.06 395.91 132.32 395.56 132.62 395.28 132.97 395.07 133.35 394.92 133.78 394.85 134.24 Z M 405.40 141.20 L 405.41 129.92 407.33 129.92 407.33 131.78 407.54 131.41 407.78 131.08 408.04 130.78 408.33 130.50 408.65 130.26 408.99 130.05 409.35 129.89 409.72 129.77 410.12 129.70 410.53 129.68 410.98 129.70 411.40 129.77 411.79 129.89 412.14 130.06 412.45 130.27 412.74 130.52 412.98 130.81 413.19 131.14 413.37 131.51 413.51 131.91 414.06 131.11 414.68 130.48 415.36 130.04 416.10 129.77 416.90 129.68 417.52 129.72 418.09 129.83 418.59 130.01 419.03 130.27 419.41 130.61 419.73 131.02 419.97 131.51 420.15 132.08 420.25 132.74 420.29 133.47 420.28 141.20 418.36 141.20 418.37 134.29 418.36 133.87 418.34 133.50 418.30 133.18 418.25 132.91 418.19 132.69 418.11 132.50 418.00 132.33 417.87 132.17 417.72 132.03 417.55 131.90 417.35 131.79 417.15 131.71 416.93 131.65 416.70 131.61 416.45 131.60 416.01 131.63 415.60 131.72 415.23 131.88 414.88 132.09 414.56 132.37 414.29 132.71 414.08 133.13 413.93 133.62 413.84 134.19 413.81 134.83 413.80 141.20 411.88 141.20 411.89 134.08 411.87 133.61 411.82 133.19 411.73 132.81 411.60 132.49 411.44 132.22 411.24 132.00 411.00 131.82 410.71 131.70 410.37 131.62 409.99 131.60 409.69 131.62 409.39 131.67 409.11 131.75 408.83 131.86 408.57 132.01 408.32 132.19 408.10 132.40 407.91 132.65 407.75 132.92 407.62 133.22 407.51 133.57 407.43 133.97 407.37 134.43 407.34 134.94 407.33 135.51 407.32 141.20 Z M 422.69 135.56 L 422.75 134.38 422.95 133.32 423.29 132.39 423.75 131.60 424.35 130.93 424.93 130.48 425.56 130.13 426.24 129.88 426.96 129.73 427.73 129.68 428.59 129.74 429.38 129.92 430.11 130.23 430.77 130.65 431.36 131.20 431.87 131.86 432.26 132.60 432.54 133.44 432.71 134.38 432.77 135.40 432.74 136.23 432.66 136.99 432.54 137.67 432.36 138.28 432.14 138.82 431.87 139.29 431.55 139.73 431.19 140.11 430.78 140.45 430.32 140.75 429.84 141.00 429.34 141.19 428.82 141.33 428.28 141.41 427.72 141.44 426.86 141.38 426.06 141.20 425.33 140.89 424.67 140.47 424.07 139.93 423.57 139.27 423.18 138.50 422.91 137.63 422.74 136.65 422.69 135.56 Z M 424.61 135.56 L 424.64 136.31 424.75 136.99 424.92 137.58 425.17 138.10 425.49 138.53 425.86 138.89 426.27 139.16 426.72 139.36 427.20 139.48 427.72 139.52 428.24 139.48 428.72 139.36 429.17 139.16 429.58 138.88 429.95 138.53 430.27 138.09 430.52 137.56 430.70 136.96 430.81 136.27 430.85 135.50 430.81 134.77 430.70 134.11 430.53 133.53 430.28 133.02 429.95 132.59 429.58 132.23 429.17 131.96 428.73 131.76 428.25 131.64 427.73 131.60 427.21 131.64 426.73 131.76 426.28 131.95 425.87 132.23 425.50 132.58 425.18 133.02 424.93 133.53 424.75 134.13 424.64 134.80 424.61 135.56 Z M 437.69 141.20 L 433.73 129.92 435.76 129.92 438.16 136.68 438.31 137.12 438.46 137.57 438.61 138.02 438.75 138.48 438.88 138.95 438.99 138.58 439.12 138.18 439.26 137.75 439.42 137.29 439.59 136.80 442.02 129.92 444.05 129.92 440.12 141.20 Z M 453.62 137.84 L 455.50 138.08 455.28 138.69 454.99 139.24 454.64 139.74 454.22 140.18 453.74 140.56 453.20 140.88 452.60 141.12 451.94 141.30 451.23 141.40 450.46 141.44 449.50 141.38 448.62 141.20 447.82 140.89 447.11 140.47 446.48 139.92 445.95 139.26 445.53 138.51 445.24 137.65 445.06 136.70 445.01 135.65 445.07 134.57 445.25 133.59 445.54 132.70 445.96 131.93 446.50 131.25 447.13 130.68 447.83 130.24 448.60 129.93 449.45 129.74 450.36 129.68 451.25 129.74 452.06 129.93 452.81 130.24 453.50 130.68 454.11 131.24 454.64 131.92 455.04 132.70 455.33 133.58 455.51 134.56 455.57 135.64 455.57 135.72 455.56 135.81 455.56 135.91 455.56 136.03 455.55 136.16 446.92 136.16 447.00 136.78 447.15 137.34 447.37 137.84 447.66 138.28 448.03 138.65 448.44 138.97 448.90 139.21 449.39 139.38 449.92 139.49 450.50 139.52 450.93 139.50 451.33 139.46 451.70 139.38 452.06 139.26 452.38 139.12 452.68 138.94 452.95 138.72 453.20 138.47 453.42 138.17 453.62 137.84 Z M 446.93 134.24 L 453.65 134.24 453.57 133.80 453.46 133.41 453.31 133.06 453.11 132.76 452.88 132.50 452.47 132.18 452.01 131.92 451.50 131.74 450.95 131.64 450.35 131.60 449.81 131.63 449.30 131.71 448.83 131.86 448.39 132.06 447.99 132.32 447.64 132.62 447.36 132.97 447.15 133.35 447.00 133.78 446.93 134.24 Z M 464.44 141.20 L 464.44 139.39 463.99 140.13 463.46 140.70 462.86 141.11 462.17 141.36 461.41 141.44 460.90 141.41 460.41 141.32 459.94 141.17 459.48 140.96 459.04 140.70 458.62 140.38 458.25 140.01 457.91 139.60 457.61 139.13 457.36 138.63 457.14 138.08 456.98 137.50 456.86 136.89 456.79 136.25 456.77 135.57 456.79 134.91 456.86 134.27 456.97 133.66 457.12 133.08 457.32 132.51 457.56 131.99 457.85 131.52 458.18 131.10 458.55 130.73 458.97 130.41 459.42 130.15 459.88 129.94 460.37 129.80 460.89 129.71 461.42 129.68 461.81 129.70 462.18 129.76 462.53 129.87 462.87 130.01 463.19 130.20 463.49 130.42 463.76 130.67 464.01 130.94 464.24 131.24 464.45 131.56 464.45 125.84 466.37 125.84 466.36 141.20 Z M 458.69 135.56 L 458.72 136.32 458.82 136.99 458.99 137.59 459.24 138.10 459.55 138.54 459.91 138.89 460.29 139.17 460.70 139.36 461.13 139.48 461.59 139.52 462.05 139.48 462.48 139.37 462.89 139.18 463.26 138.92 463.61 138.58 463.91 138.17 464.14 137.67 464.31 137.10 464.41 136.44 464.45 135.71 464.41 134.91 464.31 134.19 464.14 133.57 463.91 133.04 463.60 132.59 463.25 132.24 462.87 131.96 462.45 131.76 462.00 131.64 461.52 131.60 461.05 131.64 460.62 131.75 460.21 131.94 459.84 132.21 459.50 132.55 459.21 132.98 458.98 133.49 458.82 134.10 458.72 134.79 458.69 135.56 Z" />
<polyline points="260.00 100.00 360.00 100.00" fill="none" stroke="rgb(0,0,0)" stroke-width="2" />
<path fill="rgb(0,0,0)" stroke="none" stroke-width="2" d=" M 155 55 L 165 55 165 65 155 65 155 55 Z" />
<path fill="rgb(0,0,0)" stroke="rgb(0,0,0)" stroke-width="0" d=" M 47.74 48.59 L 48.93 48.90 48.75 49.50 48.52 50.05 48.23 50.53 47.90 50.95 47.52 51.32 47.09 51.62 46.63 51.85 46.13 52.02 45.60 52.12 45.02 52.15 44.44 52.12 43.90 52.05 43.40 51.92 42.95 51.75 42.55 51.52 42.18 51.24 41.86 50.92 41.57 50.56 41.31 50.15 41.10 49.69 40.92 49.21 40.78 48.71 40.68 48.20 40.62 47.67 40.60 47.13 40.62 46.54 40.69 45.99 40.81 45.47 40.96 44.98 41.17 44.52 41.41 44.09 41.69 43.71 42.02 43.38 42.37 43.08 42.77 42.83 43.20 42.62 43.64 42.46 44.09 42.34 44.57 42.27 45.06 42.25 45.61 42.28 46.12 42.37 46.60 42.52 47.04 42.73 47.44 43.00 47.81 43.32 48.12 43.69 48.39 44.11 48.61 44.58 48.79 45.10 47.60 45.39 47.45 45.01 47.28 44.67 47.08 44.37 46.86 44.12 46.62 43.91 46.35 43.75 46.06 43.62 45.73 43.52 45.39 43.47 45.01 43.45 44.58 43.47 44.18 43.53 43.81 43.63 43.46 43.78 43.15 43.96 42.87 44.18 42.62 44.43 42.41 44.71 42.24 45.01 42.10 45.34 41.99 45.69 41.90 46.04 41.84 46.40 41.80 46.76 41.79 47.12 41.80 47.59 41.85 48.02 41.92 48.44 42.02 48.83 42.15 49.19 42.31 49.53 42.50 49.83 42.72 50.09 42.98 50.32 43.26 50.51 43.57 50.67 43.89 50.79 44.22 50.88 44.56 50.93 44.91 50.95 45.32 50.93 45.71 50.85 46.08 50.74 46.42 50.57 46.73 50.35 47.01 50.09 47.25 49.79 47.45 49.43 47.62 49.03 47.74 48.59 Z M 50.12 47.33 L 50.17 46.42 50.33 45.59 50.58 44.84 50.94 44.18 51.40 43.60 51.93 43.11 52.53 42.74 53.18 42.47 53.90 42.30 54.67 42.25 55.19 42.28 55.68 42.35 56.16 42.48 56.61 42.65 57.04 42.88 57.44 43.16 57.80 43.47 58.13 43.82 58.41 44.21 58.65 44.65 58.85 45.11 59.00 45.60 59.11 46.12 59.18 46.65 59.20 47.22 59.17 47.79 59.10 48.33 58.99 48.85 58.82 49.35 58.61 49.82 58.36 50.26 58.07 50.65 57.74 51.00 57.37 51.30 56.96 51.56 56.53 51.77 56.08 51.94 55.62 52.06 55.14 52.13 54.66 52.15 54.13 52.12 53.63 52.05 53.15 51.92 52.70 51.73 52.26 51.50 51.86 51.22 51.50 50.90 51.18 50.54 50.90 50.15 50.67 49.72 50.47 49.26 50.32 48.79 50.21 48.31 50.14 47.83 50.12 47.33 Z M 51.31 47.34 L 51.35 47.98 51.46 48.57 51.65 49.10 51.92 49.57 52.26 49.98 52.66 50.33 53.10 50.60 53.58 50.80 54.09 50.91 54.65 50.95 55.21 50.91 55.74 50.79 56.22 50.60 56.66 50.33 57.06 49.97 57.40 49.55 57.67 49.06 57.86 48.51 57.97 47.89 58.01 47.21 57.99 46.76 57.94 46.35 57.86 45.95 57.75 45.58 57.61 45.23 57.43 44.90 57.22 44.61 56.99 44.35 56.72 44.12 56.42 43.92 56.11 43.75 55.77 43.62 55.42 43.52 55.06 43.47 54.68 43.45 54.14 43.49 53.64 43.59 53.17 43.77 52.72 44.02 52.31 44.35 51.95 44.75 51.67 45.26 51.47 45.85 51.35 46.55 51.31 47.34 Z M 60.83 52.00 L 60.84 42.40 62.11 42.40 67.08 50.01 67.09 42.40 68.28 42.40 68.27 52.00 67.00 52.00 62.03 44.39 62.02 52.00 Z M 72.73 52.00 L 72.74 43.60 69.62 43.60 69.62 42.40 77.06 42.40 77.06 43.60 73.93 43.60 73.92 52.00 Z M 78.39 52.00 L 78.40 42.40 82.50 42.40 82.98 42.41 83.41 42.44 83.79 42.49 84.12 42.57 84.41 42.66 84.66 42.78 84.88 42.93 85.09 43.11 85.28 43.33 85.45 43.58 85.59 43.84 85.69 44.12 85.77 44.41 85.82 44.72 85.83 45.03 85.81 45.43 85.73 45.80 85.60 46.14 85.42 46.46 85.19 46.76 84.90 47.02 84.56 47.24 84.16 47.42 83.70 47.55 83.19 47.65 83.36 47.75 83.52 47.86 83.65 47.96 83.77 48.06 83.87 48.16 84.06 48.39 84.26 48.62 84.45 48.87 84.64 49.13 84.83 49.40 86.42 52.00 85.03 52.00 83.80 50.01 83.59 49.68 83.39 49.39 83.21 49.12 83.05 48.89 82.90 48.69 82.77 48.52 82.63 48.37 82.51 48.25 82.39 48.15 82.28 48.07 82.16 48.01 82.05 47.95 81.94 47.91 81.82 47.87 81.71 47.84 81.61 47.83 81.50 47.82 81.36 47.81 81.20 47.80 81.02 47.80 79.58 47.80 79.58 52.00 Z M 79.58 46.60 L 82.25 46.60 82.57 46.59 82.87 46.57 83.14 46.54 83.39 46.49 83.61 46.43 83.80 46.35 83.97 46.26 84.13 46.15 84.26 46.03 84.38 45.89 84.47 45.73 84.55 45.58 84.60 45.41 84.63 45.25 84.64 45.07 84.62 44.82 84.56 44.59 84.46 44.38 84.32 44.19 84.14 44.01 83.92 43.87 83.65 43.75 83.33 43.67 82.96 43.62 82.55 43.60 79.59 43.60 Z M 87.47 47.33 L 87.52 46.42 87.67 45.59 87.93 44.84 88.28 44.18 88.74 43.60 89.28 43.11 89.88 42.74 90.53 42.47 91.24 42.30 92.02 42.25 92.53 42.28 93.03 42.35 93.50 42.48 93.95 42.65 94.39 42.88 94.79 43.16 95.15 43.47 95.47 43.82 95.75 44.21 95.99 44.65 96.19 45.11 96.35 45.60 96.46 46.12 96.52 46.65 96.54 47.22 96.52 47.79 96.45 48.33 96.33 48.85 96.17 49.35 95.96 49.82 95.71 50.26 95.41 50.65 95.08 51.00 94.71 51.30 94.31 51.56 93.87 51.77 93.43 51.94 92.96 52.06 92.49 52.13 92.00 52.15 91.48 52.12 90.98 52.05 90.50 51.92 90.04 51.73 89.61 51.50 89.21 51.22 88.85 50.90 88.53 50.54 88.25 50.15 88.01 49.72 87.82 49.26 87.66 48.79 87.56 48.31 87.49 47.83 87.47 47.33 Z M 88.66 47.34 L 88.70 47.98 88.81 48.57 89.00 49.10 89.26 49.57 89.61 49.98 90.01 50.33 90.45 50.60 90.92 50.80 91.44 50.91 91.99 50.95 92.56 50.91 93.08 50.79 93.57 50.60 94.01 50.33 94.41 49.97 94.75 49.55 95.01 49.06 95.20 48.51 95.32 47.89 95.35 47.21 95.34 46.76 95.29 46.35 95.21 45.95 95.10 45.58 94.95 45.23 94.78 44.90 94.57 44.61 94.33 44.35 94.07 44.12 93.77 43.92 93.45 43.75 93.12 43.62 92.77 43.52 92.40 43.47 92.02 43.45 91.49 43.49 90.98 43.59 90.51 43.77 90.07 44.02 89.65 44.35 89.30 44.75 89.02 45.26 88.82 45.85 88.70 46.55 88.66 47.34 Z M 98.18 52.00 L 98.19 42.40 99.38 42.40 99.37 50.80 104.13 50.80 104.13 52.00 Z M 115.45 42.40 L 116.64 42.40 116.63 47.94 116.62 48.49 116.58 49.00 116.51 49.46 116.42 49.87 116.30 50.23 116.15 50.56 115.96 50.86 115.73 51.14 115.45 51.39 115.14 51.62 114.78 51.81 114.38 51.96 113.94 52.06 113.46 52.13 112.93 52.15 112.42 52.13 111.94 52.08 111.51 51.98 111.11 51.85 110.75 51.69 110.44 51.48 110.16 51.25 109.92 50.98 109.71 50.68 109.55 50.34 109.42 49.96 109.32 49.53 109.25 49.05 109.20 48.52 109.19 47.94 109.20 42.40 110.39 42.40 110.38 47.90 110.39 48.37 110.42 48.79 110.46 49.15 110.53 49.46 110.61 49.73 110.72 49.95 110.86 50.15 111.02 50.33 111.20 50.49 111.42 50.63 111.66 50.75 111.92 50.84 112.20 50.90 112.50 50.94 112.82 50.95 113.35 50.92 113.82 50.85 114.22 50.72 114.56 50.55 114.83 50.32 115.05 50.02 115.22 49.63 115.34 49.14 115.42 48.57 115.44 47.90 Z M 118.71 52.00 L 118.72 42.40 119.99 42.40 124.96 50.01 124.97 42.40 126.16 42.40 126.15 52.00 124.87 52.00 119.91 44.39 119.90 52.00 Z M 128.38 52.00 L 128.39 42.40 129.58 42.40 129.57 52.00 Z M 134.33 52.00 L 134.34 43.60 131.22 43.60 131.22 42.40 138.66 42.40 138.66 43.60 135.53 43.60 135.52 52.00 Z M 143.71 52.00 L 143.71 42.40 144.91 42.40 144.90 47.10 149.79 42.40 151.45 42.40 147.35 46.35 151.59 52.00 150.14 52.00 146.50 47.16 144.90 48.70 144.90 52.00 Z M 156.50 52.00 L 155.31 52.00 155.32 44.52 155.14 44.68 154.93 44.84 154.71 45.00 154.46 45.17 154.19 45.33 153.92 45.48 153.66 45.62 153.40 45.74 153.17 45.85 152.94 45.93 152.94 44.80 153.33 44.61 153.70 44.40 154.04 44.17 154.37 43.93 154.68 43.68 154.97 43.42 155.21 43.16 155.42 42.90 155.60 42.65 155.74 42.40 156.51 42.40 Z M 162.39 52.00 L 166.20 42.40 167.21 42.40 171.00 52.00 169.74 52.00 168.66 49.00 164.73 49.00 163.64 52.00 Z M 165.17 47.80 L 168.22 47.80 167.37 45.44 167.20 44.98 167.05 44.56 166.92 44.20 166.80 43.88 166.70 43.60 166.59 43.90 166.48 44.21 166.36 44.54 166.24 44.88 166.11 45.23 Z M 172.27 52.00 L 172.28 42.40 178.68 42.40 178.68 43.60 173.47 43.60 173.47 46.45 177.93 46.45 177.93 47.65 173.47 47.65 173.46 52.00 Z M 183.89 43.60 L 183.89 42.40 185.08 42.40 185.08 43.60 Z M 183.88 52.00 L 183.89 44.95 185.08 44.95 185.07 52.00 Z M 186.85 52.00 L 186.86 44.95 188.05 44.95 188.05 45.93 188.38 45.53 188.75 45.21 189.18 44.98 189.67 44.85 190.20 44.80 190.44 44.81 190.68 44.84 190.90 44.88 191.12 44.95 191.33 45.03 191.52 45.13 191.70 45.23 191.85 45.35 191.98 45.49 192.10 45.63 192.19 45.78 192.27 45.95 192.35 46.12 192.40 46.31 192.45 46.51 192.47 46.66 192.49 46.86 192.50 47.09 192.51 47.36 192.51 47.67 192.51 52.00 191.32 52.00 191.32 47.83 191.32 47.56 191.30 47.32 191.27 47.11 191.24 46.93 191.19 46.77 191.12 46.64 191.04 46.51 190.95 46.40 190.83 46.30 190.70 46.21 190.56 46.13 190.41 46.08 190.24 46.03 190.07 46.01 189.89 46.00 189.59 46.02 189.32 46.08 189.06 46.17 188.82 46.30 188.59 46.47 188.40 46.69 188.24 46.98 188.14 47.34 188.07 47.77 188.05 48.26 188.04 52.00 Z" />
<polyline points="160.00 100.00 160.00 60.00" fill="none" stroke="rgb(0,0,0)" stroke-width="2" />
<path fill="rgb(0,0,0)" stroke="none" stroke-width="2" d=" M 255 55 L 265 55 265 65 255 65 255 55 Z" />
<path fill="rgb(0,0,0)" stroke="rgb(0,0,0)" stroke-width="0" d=" M 231.19 52.00 L 231.20 42.40 232.39 42.40 232.38 52.00 Z M 234.76 52.00 L 234.77 42.40 241.17 42.40 241.17 43.60 235.96 43.60 235.96 46.45 240.42 46.45 240.42 47.65 235.96 47.65 235.95 52.00 Z M 252.77 42.40 L 253.96 42.40 253.96 47.94 253.95 48.49 253.91 49.00 253.84 49.46 253.75 49.87 253.63 50.23 253.48 50.56 253.29 50.86 253.06 51.14 252.78 51.39 252.47 51.62 252.11 51.81 251.71 51.96 251.27 52.06 250.78 52.13 250.26 52.15 249.75 52.13 249.27 52.08 248.84 51.98 248.44 51.85 248.08 51.69 247.77 51.48 247.49 51.25 247.24 50.98 247.04 50.68 246.88 50.34 246.75 49.96 246.65 49.53 246.58 49.05 246.53 48.52 246.52 47.94 246.52 42.40 247.72 42.40 247.71 47.90 247.72 48.37 247.75 48.79 247.79 49.15 247.86 49.46 247.94 49.73 248.05 49.95 248.18 50.15 248.35 50.33 248.53 50.49 248.75 50.63 248.99 50.75 249.25 50.84 249.53 50.90 249.83 50.94 250.15 50.95 250.68 50.92 251.15 50.85 251.55 50.72 251.89 50.55 252.16 50.32 252.38 50.02 252.55 49.63 252.67 49.14 252.74 48.57 252.77 47.90 Z M 256.04 52.00 L 256.05 42.40 257.32 42.40 262.29 50.01 262.30 42.40 263.49 42.40 263.48 52.00 262.20 52.00 257.24 44.39 257.23 52.00 Z M 265.71 52.00 L 265.72 42.40 266.91 42.40 266.90 52.00 Z M 271.66 52.00 L 271.67 43.60 268.55 43.60 268.55 42.40 275.99 42.40 275.99 43.60 272.86 43.60 272.85 52.00 Z M 280.88 54.70 L 280.89 44.95 282.08 44.95 282.08 46.13 282.23 45.87 282.39 45.65 282.55 45.45 282.73 45.28 282.91 45.13 283.10 45.01 283.30 44.92 283.53 44.85 283.76 44.81 284.02 44.80 284.35 44.82 284.67 44.87 284.97 44.97 285.26 45.10 285.53 45.26 285.77 45.46 286.00 45.70 286.19 45.96 286.37 46.25 286.51 46.57 286.63 46.92 286.72 47.27 286.79 47.64 286.83 48.03 286.84 48.42 286.83 48.84 286.78 49.25 286.70 49.64 286.60 50.01 286.46 50.37 286.30 50.69 286.11 50.99 285.89 51.26 285.64 51.49 285.37 51.69 285.08 51.86 284.79 51.98 284.49 52.08 284.18 52.13 283.87 52.15 283.64 52.14 283.42 52.10 283.22 52.04 283.02 51.95 282.83 51.84 282.65 51.71 282.49 51.57 282.34 51.41 282.20 51.24 282.08 51.06 282.07 54.70 Z M 282.08 48.53 L 282.10 49.00 282.16 49.42 282.26 49.78 282.41 50.10 282.59 50.36 282.81 50.57 283.04 50.74 283.29 50.86 283.56 50.93 283.84 50.95 284.13 50.93 284.40 50.85 284.66 50.73 284.90 50.56 285.12 50.34 285.31 50.07 285.46 49.74 285.57 49.36 285.63 48.93 285.65 48.44 285.63 47.98 285.57 47.56 285.47 47.20 285.32 46.88 285.13 46.61 284.92 46.39 284.69 46.22 284.44 46.10 284.18 46.02 283.90 46.00 283.62 46.03 283.35 46.10 283.10 46.23 282.86 46.41 282.63 46.65 282.43 46.93 282.28 47.26 282.17 47.64 282.10 48.06 282.08 48.53 Z M 288.18 52.00 L 288.19 42.40 289.38 42.40 289.37 52.00 Z M 295.62 52.00 L 295.62 50.79 295.28 51.28 294.89 51.66 294.46 51.93 293.99 52.10 293.47 52.15 293.23 52.14 293.00 52.11 292.78 52.06 292.56 52.00 292.35 51.91 292.15 51.81 291.98 51.70 291.82 51.58 291.69 51.45 291.58 51.31 291.48 51.16 291.40 51.00 291.33 50.82 291.27 50.63 291.22 50.43 291.20 50.27 291.18 50.08 291.17 49.86 291.16 49.60 291.15 49.31 291.16 44.95 292.35 44.95 292.35 48.75 292.35 49.09 292.36 49.38 292.37 49.62 292.39 49.82 292.42 49.97 292.47 50.15 292.55 50.30 292.64 50.45 292.75 50.58 292.89 50.69 293.04 50.78 293.20 50.86 293.38 50.91 293.57 50.94 293.77 50.95 293.98 50.94 294.19 50.91 294.39 50.85 294.58 50.78 294.77 50.68 294.94 50.57 295.10 50.44 295.23 50.29 295.34 50.13 295.43 49.96 295.50 49.75 295.55 49.52 295.59 49.25 295.61 48.95 295.62 48.62 295.62 44.95 296.81 44.95 296.81 52.00 Z M 298.15 52.60 L 299.34 52.75 299.37 52.91 299.43 53.06 299.51 53.19 299.60 53.29 299.72 53.38 299.90 53.48 300.11 53.55 300.34 53.61 300.59 53.64 300.87 53.65 301.18 53.64 301.45 53.60 301.69 53.54 301.91 53.46 302.09 53.35 302.26 53.22 302.39 53.07 302.51 52.90 302.60 52.71 302.68 52.50 302.71 52.34 302.73 52.12 302.75 51.84 302.76 51.50 302.76 51.10 302.44 51.42 302.10 51.68 301.73 51.86 301.33 51.96 300.90 52.00 300.37 51.96 299.89 51.83 299.46 51.62 299.09 51.33 298.76 50.95 298.48 50.52 298.27 50.05 298.12 49.54 298.03 49.01 298.00 48.44 298.02 48.04 298.06 47.66 298.12 47.29 298.22 46.93 298.34 46.58 298.49 46.25 298.67 45.96 298.86 45.70 299.08 45.47 299.33 45.26 299.60 45.10 299.88 44.97 300.19 44.87 300.51 44.82 300.85 44.80 301.30 44.84 301.71 44.97 302.10 45.18 302.45 45.47 302.76 45.85 302.76 44.95 303.96 44.95 303.95 51.04 303.94 51.66 303.90 52.20 303.83 52.67 303.74 53.05 303.62 53.37 303.48 53.63 303.30 53.87 303.09 54.09 302.86 54.28 302.59 54.45 302.29 54.60 301.97 54.71 301.63 54.79 301.25 54.83 300.85 54.85 300.38 54.83 299.95 54.76 299.55 54.65 299.19 54.49 298.87 54.29 298.60 54.04 298.39 53.75 298.25 53.41 298.17 53.03 298.15 52.60 Z M 299.19 48.36 L 299.21 48.84 299.27 49.27 299.37 49.64 299.51 49.95 299.70 50.22 299.91 50.43 300.15 50.59 300.40 50.71 300.68 50.78 300.97 50.80 301.27 50.78 301.54 50.71 301.79 50.59 302.03 50.43 302.25 50.22 302.43 49.96 302.58 49.65 302.68 49.28 302.74 48.86 302.76 48.39 302.74 47.94 302.68 47.54 302.57 47.18 302.42 46.87 302.23 46.60 302.01 46.39 301.78 46.22 301.52 46.10 301.25 46.02 300.96 46.00 300.67 46.02 300.41 46.10 300.16 46.21 299.92 46.38 299.71 46.59 299.52 46.85 299.38 47.16 299.27 47.51 299.21 47.91 299.19 48.36 Z M 315.26 50.80 L 315.26 52.00 309.01 52.00 309.01 51.83 309.02 51.66 309.05 51.50 309.09 51.33 309.14 51.17 309.24 50.91 309.36 50.65 309.51 50.40 309.67 50.15 309.86 49.90 310.08 49.65 310.34 49.38 310.64 49.10 310.97 48.81 311.35 48.51 311.93 48.01 312.42 47.56 312.83 47.16 313.16 46.81 313.41 46.51 313.59 46.23 313.74 45.96 313.84 45.68 313.90 45.42 313.92 45.15 313.90 44.90 313.85 44.66 313.75 44.44 313.61 44.24 313.44 44.05 313.24 43.89 313.01 43.76 312.75 43.67 312.48 43.62 312.18 43.60 311.86 43.62 311.57 43.67 311.30 43.76 311.07 43.88 310.86 44.04 310.68 44.23 310.54 44.44 310.44 44.68 310.38 44.95 310.35 45.25 309.16 45.10 309.24 44.60 309.37 44.15 309.55 43.74 309.79 43.39 310.08 43.09 310.42 42.84 310.80 42.65 311.22 42.51 311.69 42.43 312.20 42.40 312.72 42.43 313.19 42.52 313.61 42.68 314.00 42.89 314.33 43.17 314.61 43.49 314.83 43.84 314.99 44.22 315.08 44.64 315.11 45.08 315.11 45.31 315.08 45.54 315.04 45.76 314.98 45.99 314.90 46.21 314.81 46.44 314.69 46.67 314.55 46.91 314.38 47.15 314.20 47.39 313.97 47.65 313.69 47.95 313.35 48.28 312.95 48.64 312.49 49.04 312.10 49.35 311.77 49.63 311.50 49.86 311.28 50.05 311.12 50.19 310.99 50.31 310.88 50.43 310.77 50.55 310.67 50.68 310.58 50.80 Z M 320.91 52.00 L 319.72 52.00 319.73 44.52 319.54 44.68 319.34 44.84 319.11 45.00 318.87 45.17 318.60 45.33 318.33 45.48 318.06 45.62 317.81 45.74 317.57 45.85 317.35 45.93 317.35 44.80 317.74 44.61 318.10 44.40 318.45 44.17 318.78 43.93 319.09 43.68 319.37 43.42 319.62 43.16 319.83 42.90 320.01 42.65 320.15 42.40 320.92 42.40 Z M 327.75 54.70 L 327.76 44.95 328.95 44.95 328.95 46.13 329.10 45.87 329.26 45.65 329.42 45.45 329.60 45.28 329.77 45.13 329.97 45.01 330.17 44.92 330.39 44.85 330.63 44.81 330.89 44.80 331.22 44.82 331.54 44.87 331.84 44.97 332.13 45.10 332.39 45.26 332.64 45.46 332.87 45.70 333.06 45.96 333.23 46.25 333.38 46.57 333.50 46.92 333.59 47.27 333.66 47.64 333.70 48.03 333.71 48.42 333.69 48.84 333.65 49.25 333.57 49.64 333.47 50.01 333.33 50.37 333.17 50.69 332.98 50.99 332.76 51.26 332.51 51.49 332.24 51.69 331.95 51.86 331.66 51.98 331.36 52.08 331.05 52.13 330.74 52.15 330.51 52.14 330.29 52.10 330.09 52.04 329.89 51.95 329.70 51.84 329.52 51.71 329.36 51.57 329.21 51.41 329.07 51.24 328.94 51.06 328.94 54.70 Z M 328.95 48.53 L 328.97 49.00 329.03 49.42 329.13 49.78 329.28 50.10 329.46 50.36 329.68 50.57 329.91 50.74 330.16 50.86 330.42 50.93 330.71 50.95 331.00 50.93 331.27 50.85 331.53 50.73 331.76 50.56 331.99 50.34 332.18 50.07 332.33 49.74 332.43 49.36 332.50 48.93 332.52 48.44 332.50 47.98 332.44 47.56 332.33 47.20 332.19 46.88 332.00 46.61 331.79 46.39 331.56 46.22 331.31 46.10 331.05 46.02 330.77 46.00 330.49 46.03 330.22 46.10 329.97 46.23 329.73 46.41 329.50 46.65 329.30 46.93 329.15 47.26 329.04 47.64 328.97 48.06 328.95 48.53 Z M 335.05 43.60 L 335.05 42.40 336.24 42.40 336.24 43.60 Z M 335.05 52.00 L 335.05 44.95 336.24 44.95 336.24 52.00 Z M 338.02 52.00 L 338.03 44.95 339.22 44.95 339.22 45.93 339.54 45.53 339.92 45.21 340.35 44.98 340.83 44.85 341.37 44.80 341.61 44.81 341.84 44.84 342.07 44.88 342.29 44.95 342.50 45.03 342.69 45.13 342.86 45.23 343.02 45.35 343.15 45.49 343.26 45.63 343.36 45.78 343.44 45.95 343.51 46.12 343.57 46.31 343.62 46.51 343.64 46.66 343.66 46.86 343.67 47.09 343.68 47.36 343.68 47.67 343.68 52.00 342.48 52.00 342.49 47.83 342.48 47.56 342.47 47.32 342.44 47.11 342.40 46.93 342.35 46.77 342.29 46.64 342.21 46.51 342.11 46.40 342.00 46.30 341.87 46.21 341.73 46.13 341.57 46.08 341.41 46.03 341.24 46.01 341.05 46.00 340.76 46.02 340.49 46.08 340.23 46.17 339.99 46.30 339.76 46.47 339.56 46.69 339.41 46.98 339.30 47.34 339.24 47.77 339.22 48.26 339.21 52.00 Z M 353.20 52.00 L 352.01 52.00 352.01 44.52 351.83 44.68 351.63 44.84 351.40 45.00 351.15 45.17 350.89 45.33 350.61 45.48 350.35 45.62 350.10 45.74 349.86 45.85 349.63 45.93 349.63 44.80 350.02 44.61 350.39 44.40 350.74 44.17 351.07 43.93 351.38 43.68 351.66 43.42 351.91 43.16 352.12 42.90 352.30 42.65 352.44 42.40 353.21 42.40 Z M 362.42 54.70 L 362.03 54.20 361.67 53.67 361.33 53.11 361.02 52.51 360.73 51.89 360.48 51.24 360.29 50.58 360.16 49.91 360.07 49.23 360.05 48.54 360.07 47.94 360.13 47.34 360.23 46.76 360.38 46.19 360.56 45.62 360.83 44.98 361.15 44.33 361.53 43.69 361.95 43.04 362.43 42.40 363.32 42.40 363.01 42.90 362.74 43.34 362.52 43.72 362.34 44.04 362.21 44.30 362.05 44.66 361.90 45.02 361.76 45.39 361.64 45.76 361.54 46.14 361.43 46.62 361.35 47.10 361.29 47.58 361.25 48.07 361.24 48.55 361.32 49.78 361.57 51.01 361.98 52.24 362.56 53.47 363.31 54.70 Z M 363.55 52.00 L 367.36 42.40 368.37 42.40 372.16 52.00 370.90 52.00 369.82 49.00 365.89 49.00 364.80 52.00 Z M 366.33 47.80 L 369.38 47.80 368.53 45.44 368.36 44.98 368.21 44.56 368.08 44.20 367.96 43.88 367.86 43.60 367.75 43.90 367.64 44.21 367.52 44.54 367.40 44.88 367.27 45.23 Z M 377.45 52.00 L 376.26 52.00 376.27 44.52 376.08 44.68 375.88 44.84 375.65 45.00 375.41 45.17 375.14 45.33 374.87 45.48 374.60 45.62 374.35 45.74 374.11 45.85 373.89 45.93 373.89 44.80 374.28 44.61 374.64 44.40 374.99 44.17 375.32 43.93 375.63 43.68 375.91 43.42 376.16 43.16 376.37 42.90 376.55 42.65 376.69 42.40 377.46 42.40 Z M 380.87 54.70 L 379.98 54.70 380.73 53.47 381.31 52.24 381.73 51.01 381.98 49.78 382.07 48.55 382.06 48.07 382.02 47.59 381.96 47.11 381.88 46.64 381.77 46.16 381.67 45.78 381.55 45.41 381.42 45.04 381.27 44.68 381.11 44.32 380.98 44.06 380.80 43.74 380.58 43.35 380.31 42.91 379.99 42.40 380.88 42.40 381.36 43.04 381.78 43.69 382.16 44.33 382.48 44.98 382.74 45.62 382.93 46.19 383.07 46.76 383.18 47.34 383.24 47.94 383.26 48.54 383.23 49.23 383.14 49.91 383.01 50.58 382.81 51.24 382.56 51.89 382.27 52.51 381.95 53.11 381.62 53.67 381.26 54.20 380.87 54.70 Z" />
<polyline points="160.00 60.00 260.00 60.00" fill="none" stroke="rgb(0,0,0)" stroke-width="2" />
<polyline points="210.00 200.00 210.00 240.00" fill="none" stroke="rgb(0,0,0)" stroke-width="2" />
<polygon points="175 265 185 270 180 275" fill="rgb(0,0,0)" stroke="rgb(0,0,0)" stroke-width="1" />
<path fill="rgb(255,255,255)" stroke="rgb(0,0,0)" stroke-width="2" d=" M 195 270 L 225 270 225 340 195 340 195 270 Z" />
<polyline points="210.00 240.00 210.00 270.00" fill="none" stroke="rgb(0,0,0)" stroke-width="2" />
<polyline points="210.00 340.00 210.00 370.00" fill="none" stroke="rgb(0,0,0)" stroke-width="2" />
<polyline points="180.00 270.00 250.00 340.00" fill="none" stroke="rgb(0,0,0)" stroke-width="2" />
<path fill="rgb(0,0,0)" stroke="rgb(0,0,0)" stroke-width="0" d=" M 236.22 284.20 L 230.12 268.84 232.18 268.84 236.26 279.91 236.45 280.43 236.63 280.94 236.79 281.44 236.94 281.93 237.08 282.40 237.23 281.90 237.38 281.40 237.55 280.90 237.72 280.40 237.90 279.91 242.02 268.84 244.07 268.84 238.20 284.20 Z M 245.84 284.20 L 245.86 268.84 252.47 268.84 253.24 268.86 253.94 268.91 254.55 268.99 255.09 269.11 255.55 269.25 255.95 269.45 256.32 269.69 256.66 269.98 256.96 270.33 257.23 270.72 257.45 271.15 257.63 271.60 257.75 272.06 257.83 272.54 257.85 273.04 257.81 273.68 257.68 274.27 257.48 274.83 257.18 275.34 256.81 275.81 256.35 276.23 255.79 276.58 255.15 276.87 254.42 277.09 253.59 277.24 253.87 277.41 254.11 277.57 254.33 277.74 254.52 277.90 254.68 278.06 255.00 278.42 255.31 278.80 255.62 279.19 255.93 279.61 256.24 280.04 258.79 284.20 256.56 284.20 254.57 281.02 254.23 280.49 253.91 280.02 253.63 279.60 253.36 279.23 253.12 278.91 252.90 278.63 252.69 278.40 252.49 278.20 252.30 278.04 252.11 277.91 251.93 277.81 251.75 277.73 251.57 277.65 251.38 277.59 251.20 277.55 251.05 277.52 250.86 277.50 250.63 277.49 250.38 277.48 250.09 277.48 247.77 277.48 247.76 284.20 Z M 247.77 275.56 L 252.07 275.56 252.59 275.55 253.08 275.52 253.51 275.46 253.91 275.39 254.26 275.29 254.57 275.17 254.85 275.02 255.10 274.84 255.32 274.64 255.51 274.42 255.66 274.17 255.78 273.92 255.86 273.66 255.91 273.39 255.93 273.12 255.90 272.72 255.80 272.35 255.64 272.01 255.41 271.70 255.12 271.42 254.76 271.18 254.32 271.00 253.81 270.87 253.22 270.79 252.56 270.76 247.78 270.76 Z M 267.68 284.20 L 265.76 284.20 265.77 272.23 265.48 272.49 265.15 272.75 264.78 273.01 264.39 273.27 263.95 273.53 263.51 273.77 263.09 273.99 262.69 274.19 262.30 274.35 261.93 274.50 261.93 272.68 262.56 272.37 263.15 272.04 263.72 271.68 264.25 271.29 264.75 270.88 265.20 270.46 265.60 270.05 265.94 269.64 266.23 269.24 266.46 268.84 267.70 268.84 Z M 272.25 276.64 L 272.27 275.60 272.34 274.64 272.46 273.75 272.61 272.95 272.82 272.22 273.07 271.57 273.36 270.99 273.69 270.49 274.07 270.05 274.50 269.68 274.96 269.38 275.48 269.14 276.04 268.97 276.64 268.87 277.30 268.84 277.78 268.86 278.25 268.92 278.70 269.02 279.13 269.16 279.54 269.34 279.92 269.55 280.26 269.80 280.57 270.09 280.85 270.41 281.09 270.76 281.30 271.15 281.50 271.57 281.67 272.03 281.84 272.51 281.99 273.03 282.11 273.61 282.21 274.26 282.28 274.98 282.32 275.77 282.33 276.64 282.30 277.68 282.24 278.64 282.12 279.52 281.97 280.32 281.76 281.04 281.52 281.69 281.23 282.27 280.89 282.79 280.51 283.23 280.09 283.60 279.62 283.90 279.11 284.14 278.55 284.31 277.94 284.41 277.28 284.44 276.43 284.38 275.65 284.21 274.94 283.91 274.32 283.50 273.77 282.98 273.22 282.07 272.79 280.99 272.49 279.72 272.31 278.27 272.25 276.64 Z M 274.17 276.64 L 274.20 278.00 274.31 279.16 274.49 280.11 274.74 280.86 275.06 281.41 275.44 281.81 275.85 282.12 276.29 282.34 276.77 282.48 277.28 282.52 277.79 282.48 278.27 282.34 278.71 282.12 279.13 281.81 279.50 281.40 279.83 280.86 280.08 280.11 280.26 279.15 280.37 278.00 280.41 276.64 280.37 275.32 280.27 274.18 280.10 273.24 279.86 272.49 279.54 271.93 279.18 271.51 278.76 271.18 278.31 270.95 277.81 270.81 277.27 270.76 276.76 270.80 276.29 270.92 275.86 271.13 275.46 271.42 275.10 271.79 274.77 272.40 274.51 273.20 274.32 274.17 274.21 275.31 274.17 276.64 Z M 291.20 284.20 L 289.28 284.20 289.29 272.23 289.00 272.49 288.67 272.75 288.30 273.01 287.91 273.27 287.47 273.53 287.03 273.77 286.61 273.99 286.21 274.19 285.82 274.35 285.45 274.50 285.45 272.68 286.08 272.37 286.67 272.04 287.24 271.68 287.77 271.29 288.27 270.88 288.72 270.46 289.12 270.05 289.46 269.64 289.75 269.24 289.98 268.84 291.22 268.84 Z M 306.08 288.52 L 305.45 287.72 304.87 286.88 304.32 285.98 303.82 285.02 303.35 284.02 302.96 282.98 302.64 281.92 302.42 280.85 302.29 279.77 302.25 278.67 302.28 277.70 302.38 276.75 302.55 275.82 302.78 274.90 303.08 274.00 303.52 272.96 304.04 271.93 304.64 270.90 305.33 269.87 306.10 268.84 307.54 268.84 307.03 269.64 306.59 270.35 306.23 270.96 305.95 271.47 305.74 271.88 305.47 272.45 305.23 273.03 305.02 273.62 304.83 274.22 304.66 274.83 304.48 275.60 304.34 276.36 304.25 277.14 304.19 277.91 304.17 278.68 304.30 280.65 304.70 282.62 305.37 284.59 306.31 286.55 307.52 288.52 Z M 307.89 284.20 L 314.04 268.84 315.67 268.84 321.79 284.20 319.76 284.20 318.01 279.40 311.68 279.40 309.92 284.20 Z M 312.39 277.48 L 317.31 277.48 315.93 273.70 315.66 272.97 315.42 272.30 315.20 271.72 315.02 271.20 314.86 270.76 314.68 271.24 314.50 271.74 314.31 272.26 314.10 272.80 313.90 273.37 Z M 323.84 284.20 L 323.86 268.84 334.18 268.84 334.18 270.76 325.78 270.76 325.77 275.32 332.97 275.32 332.97 277.24 325.77 277.24 325.76 284.20 Z M 350.01 278.20 L 350.01 276.28 356.25 276.28 356.25 282.02 355.64 282.48 355.03 282.89 354.42 283.25 353.79 283.57 353.16 283.83 352.52 284.05 351.88 284.22 351.23 284.34 350.57 284.42 349.90 284.44 349.02 284.40 348.16 284.29 347.34 284.09 346.56 283.82 345.80 283.47 345.10 283.05 344.47 282.56 343.92 282.00 343.44 281.38 343.02 280.68 342.69 279.93 342.43 279.15 342.24 278.33 342.13 277.48 342.09 276.60 342.13 275.71 342.24 274.85 342.43 274.02 342.69 273.21 343.03 272.42 343.44 271.68 343.91 271.03 344.45 270.45 345.05 269.96 345.72 269.54 346.45 269.20 347.21 268.94 348.02 268.75 348.87 268.64 349.77 268.60 350.42 268.62 351.04 268.69 351.64 268.80 352.22 268.95 352.77 269.15 353.28 269.38 353.75 269.65 354.17 269.95 354.55 270.29 354.87 270.66 355.17 271.08 355.43 271.54 355.66 272.05 355.86 272.60 356.03 273.21 354.26 273.70 354.11 273.27 353.95 272.87 353.78 272.52 353.59 272.20 353.39 271.93 353.16 271.68 352.90 271.46 352.60 271.25 352.26 271.07 351.89 270.90 351.50 270.77 351.08 270.66 350.65 270.58 350.20 270.54 349.74 270.52 349.18 270.54 348.66 270.59 348.17 270.67 347.71 270.79 347.28 270.93 346.88 271.11 346.51 271.31 346.18 271.52 345.87 271.76 345.60 272.02 345.36 272.30 345.14 272.58 344.94 272.88 344.77 273.18 344.61 273.50 344.40 274.07 344.23 274.65 344.11 275.25 344.03 275.88 344.01 276.52 344.04 277.29 344.12 278.01 344.27 278.68 344.47 279.30 344.73 279.86 345.04 280.37 345.41 280.83 345.83 281.23 346.30 281.58 346.83 281.87 347.38 282.10 347.95 282.28 348.54 282.42 349.14 282.49 349.75 282.52 350.29 282.50 350.82 282.44 351.34 282.34 351.86 282.20 352.38 282.03 352.87 281.83 353.31 281.62 353.70 281.41 354.04 281.20 354.33 280.98 354.33 278.20 Z M 357.57 284.20 L 363.72 268.84 365.35 268.84 371.47 284.20 369.44 284.20 367.69 279.40 361.36 279.40 359.60 284.20 Z M 362.07 277.48 L 366.99 277.48 365.61 273.70 365.34 272.97 365.10 272.30 364.88 271.72 364.70 271.20 364.54 270.76 364.36 271.24 364.18 271.74 363.99 272.26 363.79 272.80 363.58 273.37 Z M 373.76 284.20 L 373.78 268.84 375.70 268.84 375.68 284.20 Z M 379.52 284.20 L 379.54 268.84 381.59 268.84 389.61 281.01 389.62 268.84 391.54 268.84 391.52 284.20 389.47 284.20 381.45 272.03 381.44 284.20 Z M 395.12 288.52 L 393.68 288.52 394.89 286.55 395.83 284.59 396.51 282.62 396.91 280.65 397.05 278.68 397.03 277.91 396.97 277.15 396.88 276.38 396.74 275.62 396.57 274.86 396.40 274.25 396.22 273.65 396.00 273.06 395.76 272.48 395.50 271.91 395.29 271.49 395.01 270.98 394.64 270.36 394.21 269.65 393.70 268.84 395.14 268.84 395.91 269.87 396.59 270.90 397.19 271.93 397.71 272.96 398.14 274.00 398.44 274.90 398.67 275.82 398.84 276.75 398.94 277.70 398.97 278.67 398.92 279.77 398.79 280.85 398.56 281.92 398.25 282.98 397.84 284.02 397.37 285.02 396.87 285.98 396.32 286.88 395.74 287.72 395.12 288.52 Z" />
<path fill="rgb(0,0,0)" stroke="rgb(0,0,0)" stroke-width="0" d=" M 238.16 304.20 L 236.24 304.20 236.25 292.23 235.96 292.49 235.63 292.75 235.26 293.01 234.87 293.27 234.43 293.53 233.99 293.77 233.57 293.99 233.16 294.19 232.78 294.35 232.41 294.50 232.41 292.68 233.04 292.37 233.63 292.04 234.20 291.68 234.73 291.29 235.23 290.88 235.68 290.46 236.08 290.05 236.42 289.64 236.71 289.24 236.94 288.84 238.17 288.84 Z M 242.73 296.64 L 242.75 295.60 242.82 294.64 242.93 293.75 243.09 292.95 243.30 292.22 243.55 291.57 243.84 290.99 244.17 290.49 244.55 290.05 244.98 289.68 245.44 289.38 245.96 289.14 246.52 288.97 247.12 288.87 247.77 288.84 248.26 288.86 248.73 288.92 249.18 289.02 249.61 289.16 250.02 289.34 250.40 289.55 250.74 289.80 251.05 290.09 251.33 290.41 251.57 290.76 251.78 291.15 251.97 291.57 252.15 292.03 252.32 292.51 252.46 293.03 252.59 293.61 252.69 294.26 252.75 294.98 252.79 295.77 252.81 296.64 252.78 297.68 252.71 298.64 252.60 299.52 252.44 300.32 252.24 301.04 252.00 301.69 251.71 302.27 251.37 302.79 250.99 303.23 250.57 303.60 250.10 303.90 249.59 304.14 249.02 304.31 248.42 304.41 247.76 304.44 246.90 304.38 246.13 304.21 245.42 303.91 244.80 303.50 244.25 302.98 243.70 302.07 243.27 300.99 242.97 299.72 242.79 298.27 242.73 296.64 Z M 244.65 296.64 L 244.68 298.00 244.79 299.16 244.97 300.11 245.22 300.86 245.54 301.41 245.92 301.81 246.33 302.12 246.77 302.34 247.25 302.48 247.76 302.52 248.27 302.48 248.75 302.34 249.19 302.12 249.60 301.81 249.98 301.40 250.31 300.86 250.56 300.11 250.74 299.15 250.85 298.00 250.89 296.64 250.85 295.32 250.75 294.18 250.58 293.24 250.34 292.49 250.02 291.93 249.65 291.51 249.24 291.18 248.79 290.95 248.29 290.81 247.75 290.76 247.24 290.80 246.77 290.92 246.34 291.13 245.94 291.42 245.58 291.79 245.25 292.40 244.99 293.20 244.80 294.17 244.69 295.31 244.65 296.64 Z M 254.96 304.20 L 254.97 288.84 256.89 288.84 256.89 297.09 261.20 292.92 263.85 292.92 259.49 297.15 264.08 304.20 261.84 304.20 258.11 298.48 256.88 299.67 256.88 304.20 Z" />
<polyline points="360.00 100.00 360.00 100.00" fill="none" stroke="rgb(0,0,0)" stroke-width="2" />
<path fill="rgb(0,0,0)" stroke="none" stroke-width="2" d=" M 355 95 L 365 95 365 105 355 105 355 95 Z" />
<path fill="rgb(0,0,0)" stroke="rgb(0,0,0)" stroke-width="0" d=" M 347.74 88.59 L 348.93 88.90 348.75 89.50 348.52 90.05 348.23 90.53 347.90 90.95 347.52 91.32 347.09 91.62 346.63 91.85 346.13 92.02 345.60 92.12 345.02 92.15 344.44 92.12 343.90 92.05 343.40 91.92 342.95 91.75 342.55 91.52 342.18 91.24 341.86 90.92 341.57 90.56 341.31 90.15 341.10 89.69 340.92 89.21 340.78 88.71 340.68 88.20 340.62 87.67 340.60 87.13 340.62 86.54 340.69 85.99 340.81 85.47 340.96 84.98 341.17 84.52 341.41 84.09 341.69 83.71 342.02 83.38 342.37 83.08 342.77 82.83 343.20 82.62 343.64 82.46 344.09 82.34 344.57 82.27 345.06 82.25 345.61 82.28 346.12 82.37 346.60 82.52 347.04 82.73 347.44 83.00 347.81 83.32 348.12 83.69 348.39 84.11 348.61 84.58 348.79 85.10 347.60 85.39 347.45 85.01 347.28 84.67 347.08 84.37 346.86 84.12 346.62 83.91 346.35 83.75 346.06 83.62 345.73 83.52 345.39 83.47 345.01 83.45 344.58 83.47 344.18 83.53 343.81 83.63 343.46 83.78 343.15 83.96 342.87 84.18 342.62 84.43 342.41 84.71 342.24 85.01 342.10 85.34 341.99 85.69 341.90 86.04 341.84 86.40 341.80 86.76 341.79 87.12 341.80 87.59 341.85 88.02 341.92 88.44 342.02 88.83 342.15 89.19 342.31 89.53 342.50 89.83 342.72 90.09 342.98 90.32 343.26 90.51 343.57 90.67 343.89 90.79 344.22 90.88 344.56 90.93 344.91 90.95 345.32 90.93 345.71 90.85 346.08 90.74 346.42 90.57 346.73 90.35 347.01 90.09 347.25 89.79 347.45 89.43 347.62 89.03 347.74 88.59 Z M 350.12 87.33 L 350.17 86.42 350.33 85.59 350.58 84.84 350.94 84.18 351.40 83.60 351.93 83.11 352.53 82.74 353.18 82.47 353.90 82.30 354.67 82.25 355.19 82.28 355.68 82.35 356.16 82.48 356.61 82.65 357.04 82.88 357.44 83.16 357.80 83.47 358.13 83.82 358.41 84.21 358.65 84.65 358.85 85.11 359.00 85.60 359.11 86.12 359.18 86.65 359.20 87.22 359.17 87.79 359.10 88.33 358.99 88.85 358.82 89.35 358.61 89.82 358.36 90.26 358.07 90.65 357.74 91.00 357.37 91.30 356.96 91.56 356.53 91.77 356.08 91.94 355.62 92.06 355.14 92.13 354.66 92.15 354.13 92.12 353.63 92.05 353.15 91.92 352.70 91.73 352.26 91.50 351.86 91.22 351.50 90.90 351.18 90.54 350.90 90.15 350.67 89.72 350.47 89.26 350.32 88.79 350.21 88.31 350.14 87.83 350.12 87.33 Z M 351.31 87.34 L 351.35 87.98 351.46 88.57 351.65 89.10 351.92 89.57 352.26 89.98 352.66 90.33 353.10 90.60 353.58 90.80 354.09 90.91 354.65 90.95 355.21 90.91 355.74 90.79 356.22 90.60 356.66 90.33 357.06 89.97 357.40 89.55 357.67 89.06 357.86 88.51 357.97 87.89 358.01 87.21 357.99 86.76 357.94 86.35 357.86 85.95 357.75 85.58 357.61 85.23 357.43 84.90 357.22 84.61 356.99 84.35 356.72 84.12 356.42 83.92 356.11 83.75 355.77 83.62 355.42 83.52 355.06 83.47 354.68 83.45 354.14 83.49 353.64 83.59 353.17 83.77 352.72 84.02 352.31 84.35 351.95 84.75 351.67 85.26 351.47 85.85 351.35 86.55 351.31 87.34 Z M 360.83 92.00 L 360.84 82.40 362.11 82.40 367.08 90.01 367.09 82.40 368.28 82.40 368.27 92.00 367.00 92.00 362.03 84.39 362.02 92.00 Z M 372.73 92.00 L 372.74 83.60 369.62 83.60 369.62 82.40 377.06 82.40 377.06 83.60 373.93 83.60 373.92 92.00 Z M 378.39 92.00 L 378.40 82.40 382.50 82.40 382.98 82.41 383.41 82.44 383.79 82.49 384.12 82.57 384.41 82.66 384.66 82.78 384.88 82.93 385.09 83.11 385.28 83.33 385.45 83.58 385.59 83.84 385.69 84.12 385.77 84.41 385.82 84.72 385.83 85.03 385.81 85.43 385.73 85.80 385.60 86.14 385.42 86.46 385.19 86.76 384.90 87.02 384.56 87.24 384.16 87.42 383.70 87.55 383.19 87.65 383.36 87.75 383.52 87.86 383.65 87.96 383.77 88.06 383.87 88.16 384.07 88.39 384.26 88.62 384.45 88.87 384.64 89.13 384.83 89.40 386.42 92.00 385.03 92.00 383.80 90.01 383.59 89.68 383.39 89.39 383.21 89.12 383.05 88.89 382.90 88.69 382.77 88.52 382.64 88.37 382.51 88.25 382.39 88.15 382.28 88.07 382.16 88.01 382.05 87.95 381.94 87.91 381.82 87.87 381.71 87.84 381.61 87.83 381.50 87.82 381.36 87.81 381.20 87.80 381.02 87.80 379.58 87.80 379.58 92.00 Z M 379.58 86.60 L 382.25 86.60 382.57 86.59 382.87 86.57 383.14 86.54 383.39 86.49 383.61 86.43 383.80 86.35 383.97 86.26 384.13 86.15 384.26 86.03 384.38 85.89 384.47 85.73 384.55 85.58 384.60 85.41 384.63 85.25 384.64 85.07 384.62 84.82 384.56 84.59 384.46 84.38 384.32 84.19 384.14 84.01 383.92 83.87 383.65 83.75 383.33 83.67 382.96 83.62 382.55 83.60 379.59 83.60 Z M 387.47 87.33 L 387.52 86.42 387.67 85.59 387.93 84.84 388.28 84.18 388.74 83.60 389.28 83.11 389.88 82.74 390.53 82.47 391.25 82.30 392.02 82.25 392.53 82.28 393.03 82.35 393.50 82.48 393.95 82.65 394.39 82.88 394.79 83.16 395.15 83.47 395.47 83.82 395.75 84.21 395.99 84.65 396.19 85.11 396.35 85.60 396.46 86.12 396.52 86.65 396.54 87.22 396.52 87.79 396.45 88.33 396.33 88.85 396.17 89.35 395.96 89.82 395.71 90.26 395.41 90.65 395.08 91.00 394.71 91.30 394.31 91.56 393.87 91.77 393.43 91.94 392.96 92.06 392.49 92.13 392.00 92.15 391.48 92.12 390.98 92.05 390.50 91.92 390.04 91.73 389.61 91.50 389.21 91.22 388.85 90.90 388.53 90.54 388.25 90.15 388.01 89.72 387.82 89.26 387.66 88.79 387.56 88.31 387.49 87.83 387.47 87.33 Z M 388.66 87.34 L 388.70 87.98 388.81 88.57 389.00 89.10 389.27 89.57 389.61 89.98 390.01 90.33 390.45 90.60 390.92 90.80 391.44 90.91 391.99 90.95 392.56 90.91 393.08 90.79 393.57 90.60 394.01 90.33 394.41 89.97 394.75 89.55 395.01 89.06 395.20 88.51 395.32 87.89 395.35 87.21 395.34 86.76 395.29 86.35 395.21 85.95 395.10 85.58 394.95 85.23 394.78 84.90 394.57 84.61 394.33 84.35 394.07 84.12 393.77 83.92 393.45 83.75 393.12 83.62 392.77 83.52 392.41 83.47 392.03 83.45 391.49 83.49 390.99 83.59 390.51 83.77 390.07 84.02 389.65 84.35 389.30 84.75 389.02 85.26 388.82 85.85 388.70 86.55 388.66 87.34 Z M 398.18 92.00 L 398.19 82.40 399.38 82.40 399.37 90.80 404.13 90.80 404.13 92.00 Z M 415.45 82.40 L 416.64 82.40 416.63 87.94 416.62 88.49 416.58 89.00 416.51 89.46 416.42 89.87 416.30 90.23 416.15 90.56 415.96 90.86 415.73 91.14 415.45 91.39 415.14 91.62 414.78 91.81 414.38 91.96 413.94 92.06 413.46 92.13 412.93 92.15 412.42 92.13 411.94 92.08 411.51 91.98 411.11 91.85 410.76 91.69 410.44 91.48 410.16 91.25 409.92 90.98 409.71 90.68 409.55 90.34 409.42 89.96 409.32 89.53 409.25 89.05 409.21 88.52 409.19 87.94 409.20 82.40 410.39 82.40 410.38 87.90 410.39 88.37 410.42 88.79 410.46 89.15 410.53 89.46 410.61 89.73 410.72 89.95 410.86 90.15 411.02 90.33 411.21 90.49 411.42 90.63 411.66 90.75 411.92 90.84 412.20 90.90 412.50 90.94 412.82 90.95 413.35 90.92 413.82 90.85 414.22 90.72 414.56 90.55 414.84 90.32 415.05 90.02 415.22 89.63 415.34 89.14 415.42 88.57 415.44 87.90 Z M 418.71 92.00 L 418.72 82.40 419.99 82.40 424.96 90.01 424.97 82.40 426.16 82.40 426.15 92.00 424.88 92.00 419.91 84.39 419.90 92.00 Z M 428.38 92.00 L 428.39 82.40 429.58 82.40 429.57 92.00 Z M 434.33 92.00 L 434.34 83.60 431.22 83.60 431.22 82.40 438.66 82.40 438.66 83.60 435.53 83.60 435.52 92.00 Z M 443.71 92.00 L 443.72 82.40 444.91 82.40 444.90 87.10 449.79 82.40 451.45 82.40 447.35 86.35 451.59 92.00 450.14 92.00 446.51 87.16 444.90 88.70 444.90 92.00 Z M 456.50 92.00 L 455.31 92.00 455.32 84.52 455.14 84.68 454.93 84.84 454.71 85.00 454.46 85.17 454.19 85.33 453.92 85.48 453.66 85.62 453.41 85.74 453.17 85.85 452.94 85.93 452.94 84.80 453.33 84.61 453.70 84.40 454.05 84.17 454.37 83.93 454.68 83.68 454.97 83.42 455.21 83.16 455.43 82.90 455.60 82.65 455.74 82.40 456.51 82.40 Z M 465.43 90.80 L 465.43 92.00 459.18 92.00 459.18 91.83 459.20 91.66 459.22 91.50 459.26 91.33 459.31 91.17 459.41 90.91 459.53 90.65 459.68 90.40 459.85 90.15 460.03 89.90 460.25 89.65 460.51 89.38 460.81 89.10 461.15 88.81 461.53 88.51 462.10 88.01 462.59 87.56 463.01 87.16 463.34 86.81 463.58 86.51 463.77 86.23 463.91 85.96 464.01 85.68 464.08 85.42 464.10 85.15 464.08 84.90 464.02 84.66 463.92 84.44 463.79 84.24 463.61 84.05 463.41 83.89 463.18 83.76 462.93 83.67 462.65 83.62 462.35 83.60 462.03 83.62 461.74 83.67 461.48 83.76 461.24 83.88 461.03 84.04 460.85 84.23 460.71 84.44 460.61 84.68 460.55 84.95 460.53 85.25 459.34 85.10 459.41 84.60 459.54 84.15 459.72 83.74 459.96 83.39 460.25 83.09 460.59 82.84 460.97 82.65 461.40 82.51 461.86 82.43 462.37 82.40 462.89 82.43 463.36 82.52 463.79 82.68 464.17 82.89 464.51 83.17 464.79 83.49 465.01 83.84 465.16 84.22 465.26 84.64 465.29 85.08 465.28 85.31 465.25 85.54 465.21 85.76 465.15 85.99 465.07 86.21 464.98 86.44 464.86 86.67 464.72 86.91 464.56 87.15 464.37 87.39 464.14 87.65 463.86 87.95 463.52 88.28 463.12 88.64 462.66 89.04 462.27 89.35 461.94 89.63 461.67 89.86 461.45 90.05 461.29 90.19 461.17 90.31 461.05 90.43 460.94 90.55 460.85 90.68 460.76 90.80 Z M 469.68 92.00 L 473.49 82.40 474.50 82.40 478.29 92.00 477.04 92.00 475.95 89.00 472.02 89.00 470.93 92.00 Z M 472.46 87.80 L 475.51 87.80 474.66 85.44 474.49 84.98 474.34 84.56 474.21 84.20 474.09 83.88 473.99 83.60 473.89 83.90 473.77 84.21 473.65 84.54 473.53 84.88 473.40 85.23 Z M 479.56 92.00 L 479.57 82.40 485.97 82.40 485.97 83.60 480.76 83.60 480.76 86.45 485.22 86.45 485.22 87.65 480.76 87.65 480.75 92.00 Z M 490.88 88.47 L 490.92 87.73 491.04 87.07 491.25 86.50 491.54 86.00 491.91 85.58 492.27 85.30 492.66 85.08 493.08 84.92 493.53 84.83 494.01 84.80 494.54 84.84 495.03 84.95 495.48 85.14 495.89 85.41 496.25 85.75 496.57 86.16 496.81 86.63 496.99 87.15 497.09 87.74 497.13 88.38 497.11 88.90 497.06 89.37 496.98 89.80 496.88 90.18 496.74 90.51 496.57 90.81 496.37 91.08 496.15 91.32 495.89 91.53 495.61 91.72 495.31 91.87 495.00 92.00 494.68 92.08 494.34 92.13 494.00 92.15 493.46 92.11 492.97 92.00 492.51 91.81 492.10 91.54 491.74 91.20 491.43 90.79 491.19 90.31 491.01 89.77 490.91 89.15 490.88 88.47 Z M 492.07 88.47 L 492.09 88.94 492.15 89.37 492.26 89.74 492.42 90.06 492.61 90.33 492.85 90.55 493.10 90.73 493.38 90.85 493.68 90.93 494.00 90.95 494.32 90.93 494.62 90.85 494.90 90.73 495.15 90.55 495.38 90.33 495.58 90.05 495.74 89.73 495.85 89.35 495.91 88.92 495.94 88.44 495.91 87.98 495.85 87.57 495.74 87.20 495.58 86.89 495.38 86.62 495.15 86.40 494.90 86.22 494.62 86.10 494.32 86.02 494.01 86.00 493.68 86.02 493.38 86.10 493.11 86.22 492.85 86.39 492.62 86.62 492.42 86.89 492.27 87.21 492.16 87.58 492.09 88.00 492.07 88.47 Z M 502.92 92.00 L 502.93 90.79 502.59 91.28 502.20 91.66 501.77 91.93 501.30 92.10 500.78 92.15 500.54 92.14 500.31 92.11 500.09 92.06 499.87 92.00 499.66 91.91 499.46 91.81 499.28 91.70 499.13 91.58 499.00 91.45 498.88 91.31 498.79 91.16 498.71 91.00 498.64 90.82 498.58 90.63 498.53 90.43 498.51 90.27 498.49 90.08 498.47 89.86 498.47 89.60 498.46 89.31 498.47 84.95 499.66 84.95 499.65 88.75 499.66 89.09 499.66 89.38 499.68 89.62 499.70 89.82 499.73 89.97 499.78 90.15 499.85 90.30 499.95 90.45 500.06 90.58 500.20 90.69 500.35 90.78 500.51 90.86 500.69 90.91 500.88 90.94 501.08 90.95 501.29 90.94 501.49 90.91 501.69 90.85 501.89 90.78 502.08 90.68 502.25 90.57 502.40 90.44 502.54 90.29 502.65 90.13 502.73 89.96 502.80 89.75 502.86 89.52 502.90 89.25 502.92 88.95 502.93 88.62 502.93 84.95 504.12 84.95 504.11 92.00 Z M 508.28 91.00 L 508.43 92.04 508.23 92.08 508.05 92.11 507.87 92.13 507.70 92.15 507.54 92.15 507.29 92.14 507.07 92.12 506.87 92.08 506.69 92.02 506.54 91.95 506.41 91.87 506.29 91.77 506.19 91.67 506.11 91.55 506.04 91.43 505.99 91.27 505.95 91.06 505.92 90.78 505.91 90.45 505.90 90.07 505.91 86.15 505.01 86.15 505.01 84.95 505.91 84.95 505.91 83.24 507.10 82.53 507.10 84.95 508.29 84.95 508.29 86.15 507.10 86.15 507.09 90.03 507.10 90.21 507.10 90.36 507.12 90.48 507.13 90.58 507.16 90.65 507.18 90.70 507.22 90.75 507.26 90.80 507.31 90.83 507.36 90.87 507.42 90.90 507.49 90.92 507.57 90.94 507.66 90.95 507.76 90.95 507.85 90.95 507.94 90.96 508.04 90.97 508.16 90.98 508.28 91.00 Z" />
<path fill="rgb(0,0,0)" stroke="none" stroke-width="2" d=" M 205 225 L 215 225 215 235 205 235 205 225 Z" />
<path fill="rgb(0,0,0)" stroke="rgb(0,0,0)" stroke-width="0" d=" M 220.60 228.70 L 221.79 228.70 221.83 228.98 221.89 229.24 221.96 229.48 222.06 229.70 222.17 229.90 222.31 230.08 222.47 230.25 222.65 230.40 222.87 230.54 223.11 230.66 223.37 230.76 223.64 230.85 223.92 230.90 224.22 230.94 224.53 230.95 224.81 230.94 225.07 230.91 225.32 230.87 225.56 230.81 225.78 230.73 225.98 230.64 226.17 230.53 226.33 230.41 226.47 230.28 226.58 230.13 226.68 229.97 226.75 229.82 226.80 229.65 226.84 229.49 226.85 229.32 226.84 229.16 226.82 229.00 226.78 228.85 226.72 228.71 226.65 228.57 226.56 228.45 226.43 228.33 226.27 228.22 226.07 228.12 225.84 228.03 225.65 227.96 225.38 227.89 225.03 227.79 224.61 227.69 224.11 227.57 223.60 227.45 223.17 227.33 222.79 227.21 222.49 227.09 222.24 226.98 221.99 226.83 221.76 226.66 221.55 226.48 221.38 226.29 221.23 226.09 221.11 225.87 221.02 225.64 220.95 225.40 220.91 225.15 220.90 224.89 220.92 224.61 220.97 224.33 221.05 224.06 221.17 223.79 221.31 223.54 221.49 223.30 221.71 223.08 221.95 222.89 222.22 222.72 222.52 222.58 222.84 222.46 223.18 222.37 223.54 222.30 223.90 222.26 224.28 222.25 224.70 222.26 225.10 222.30 225.47 222.37 225.83 222.47 226.17 222.59 226.48 222.74 226.76 222.92 227.01 223.12 227.23 223.35 227.42 223.60 227.58 223.87 227.71 224.16 227.80 224.46 227.86 224.77 227.89 225.10 226.70 225.10 226.64 224.79 226.55 224.51 226.41 224.26 226.24 224.05 226.03 223.87 225.78 223.72 225.48 223.60 225.14 223.52 224.76 223.47 224.33 223.45 223.89 223.47 223.50 223.52 223.16 223.60 222.87 223.71 222.63 223.86 222.43 224.03 222.28 224.22 222.18 224.42 222.11 224.63 222.09 224.86 222.11 225.05 222.15 225.23 222.23 225.40 222.33 225.55 222.47 225.69 222.67 225.82 222.96 225.96 223.35 226.09 223.83 226.22 224.41 226.36 225.00 226.49 225.50 226.62 225.92 226.74 226.26 226.86 226.52 226.96 226.81 227.13 227.08 227.30 227.31 227.50 227.50 227.71 227.67 227.94 227.80 228.18 227.91 228.44 227.98 228.71 228.02 228.99 228.04 229.29 228.02 229.59 227.97 229.89 227.88 230.18 227.76 230.46 227.61 230.73 227.42 230.99 227.21 231.22 226.96 231.43 226.69 231.61 226.38 231.78 226.05 231.91 225.71 232.02 225.35 232.09 224.97 232.14 224.58 232.15 224.09 232.13 223.63 232.09 223.21 232.00 222.81 231.89 222.45 231.75 222.13 231.57 221.83 231.36 221.56 231.12 221.32 230.84 221.11 230.53 220.93 230.20 220.79 229.85 220.69 229.48 220.63 229.10 220.60 228.70 Z M 231.52 232.00 L 228.94 222.40 230.16 222.40 231.66 228.71 231.76 229.10 231.85 229.49 231.94 229.88 232.04 230.27 232.13 230.66 232.29 230.11 232.41 229.67 232.51 229.32 232.58 229.08 232.63 228.93 234.52 222.40 236.29 222.40 237.66 227.14 237.91 227.84 238.14 228.54 238.34 229.25 238.52 229.95 238.68 230.66 238.75 230.35 238.83 230.01 238.92 229.63 239.02 229.22 239.13 228.77 240.65 222.40 241.88 222.40 239.27 232.00 238.00 232.00 235.73 224.59 235.62 224.26 235.54 223.99 235.48 223.79 235.43 223.64 235.41 223.56 235.32 223.86 235.24 224.14 235.17 224.38 235.11 224.61 235.05 224.80 232.96 232.00 Z M 252.30 222.40 L 253.49 222.40 253.48 227.94 253.47 228.49 253.43 229.00 253.36 229.46 253.27 229.87 253.16 230.23 253.01 230.56 252.81 230.86 252.58 231.14 252.31 231.39 251.99 231.62 251.63 231.81 251.23 231.96 250.79 232.06 250.31 232.13 249.78 232.15 249.27 232.13 248.79 232.08 248.36 231.98 247.96 231.85 247.61 231.69 247.29 231.48 247.01 231.25 246.77 230.98 246.56 230.68 246.40 230.34 246.27 229.96 246.17 229.53 246.10 229.05 246.06 228.52 246.04 227.94 246.05 222.40 247.24 222.40 247.23 227.90 247.24 228.37 247.27 228.79 247.32 229.15 247.38 229.46 247.47 229.73 247.57 229.95 247.71 230.15 247.87 230.33 248.06 230.49 248.27 230.63 248.51 230.75 248.77 230.84 249.05 230.90 249.35 230.94 249.67 230.95 250.20 230.92 250.67 230.85 251.07 230.72 251.41 230.55 251.69 230.32 251.90 230.02 252.07 229.63 252.19 229.14 252.27 228.57 252.29 227.90 Z M 255.56 232.00 L 255.57 222.40 256.84 222.40 261.81 230.01 261.82 222.40 263.01 222.40 263.00 232.00 261.73 232.00 256.76 224.39 256.75 232.00 Z M 265.23 232.00 L 265.24 222.40 266.43 222.40 266.42 232.00 Z M 271.18 232.00 L 271.19 223.60 268.07 223.60 268.07 222.40 275.51 222.40 275.51 223.60 272.38 223.60 272.37 232.00 Z M 280.41 234.70 L 280.42 224.95 281.61 224.95 281.61 226.13 281.76 225.87 281.91 225.65 282.08 225.45 282.25 225.28 282.43 225.13 282.62 225.01 282.83 224.92 283.05 224.85 283.29 224.81 283.54 224.80 283.87 224.82 284.19 224.87 284.49 224.97 284.78 225.10 285.05 225.26 285.30 225.46 285.52 225.70 285.72 225.96 285.89 226.25 286.03 226.57 286.15 226.92 286.25 227.27 286.31 227.64 286.35 228.03 286.36 228.42 286.35 228.84 286.30 229.25 286.23 229.64 286.12 230.01 285.99 230.37 285.82 230.69 285.63 230.99 285.41 231.26 285.17 231.49 284.89 231.69 284.61 231.86 284.31 231.98 284.01 232.08 283.70 232.13 283.39 232.15 283.16 232.14 282.95 232.10 282.74 232.04 282.54 231.95 282.35 231.84 282.18 231.71 282.01 231.57 281.86 231.41 281.72 231.24 281.60 231.06 281.60 234.70 Z M 281.60 228.53 L 281.62 229.00 281.68 229.42 281.79 229.78 281.93 230.10 282.11 230.36 282.33 230.57 282.56 230.74 282.81 230.86 283.08 230.93 283.36 230.95 283.65 230.93 283.92 230.85 284.18 230.73 284.42 230.56 284.64 230.34 284.83 230.07 284.98 229.74 285.09 229.36 285.15 228.93 285.17 228.44 285.15 227.98 285.09 227.56 284.99 227.20 284.84 226.88 284.66 226.61 284.44 226.39 284.21 226.22 283.96 226.10 283.70 226.02 283.42 226.00 283.14 226.03 282.87 226.10 282.62 226.23 282.38 226.41 282.15 226.65 281.96 226.93 281.80 227.26 281.69 227.64 281.63 228.06 281.60 228.53 Z M 287.70 232.00 L 287.71 222.40 288.90 222.40 288.89 232.00 Z M 295.14 232.00 L 295.14 230.79 294.80 231.28 294.42 231.66 293.99 231.93 293.51 232.10 292.99 232.15 292.75 232.14 292.52 232.11 292.30 232.06 292.08 232.00 291.87 231.91 291.67 231.81 291.50 231.70 291.34 231.58 291.21 231.45 291.10 231.31 291.00 231.16 290.92 231.00 290.85 230.82 290.79 230.63 290.75 230.43 290.72 230.27 290.70 230.08 290.69 229.86 290.68 229.60 290.68 229.31 290.68 224.95 291.87 224.95 291.87 228.75 291.87 229.09 291.88 229.38 291.89 229.62 291.91 229.82 291.94 229.97 291.99 230.15 292.07 230.30 292.16 230.45 292.28 230.58 292.41 230.69 292.56 230.78 292.72 230.86 292.90 230.91 293.09 230.94 293.30 230.95 293.50 230.94 293.71 230.91 293.91 230.85 294.10 230.78 294.29 230.68 294.47 230.57 294.62 230.44 294.75 230.29 294.86 230.13 294.95 229.96 295.02 229.75 295.07 229.52 295.11 229.25 295.13 228.95 295.14 228.62 295.15 224.95 296.34 224.95 296.33 232.00 Z M 297.67 232.60 L 298.86 232.75 298.90 232.91 298.95 233.06 299.03 233.19 299.13 233.29 299.24 233.38 299.42 233.48 299.63 233.55 299.86 233.61 300.12 233.64 300.40 233.65 300.70 233.64 300.97 233.60 301.21 233.54 301.43 233.46 301.62 233.35 301.78 233.22 301.92 233.07 302.03 232.90 302.13 232.71 302.20 232.50 302.23 232.34 302.25 232.12 302.27 231.84 302.28 231.50 302.28 231.10 301.97 231.42 301.62 231.68 301.25 231.86 300.85 231.96 300.42 232.00 299.89 231.96 299.41 231.83 298.99 231.62 298.61 231.33 298.28 230.95 298.01 230.52 297.79 230.05 297.64 229.54 297.55 229.01 297.52 228.44 297.54 228.04 297.58 227.66 297.65 227.29 297.74 226.93 297.87 226.58 298.01 226.25 298.19 225.96 298.38 225.70 298.61 225.47 298.85 225.26 299.12 225.10 299.40 224.97 299.71 224.87 300.03 224.82 300.37 224.80 300.82 224.84 301.24 224.97 301.62 225.18 301.97 225.47 302.29 225.85 302.29 224.95 303.48 224.95 303.47 231.04 303.46 231.66 303.42 232.20 303.35 232.67 303.26 233.05 303.14 233.37 303.00 233.63 302.82 233.87 302.62 234.09 302.38 234.28 302.11 234.45 301.82 234.60 301.50 234.71 301.15 234.79 300.77 234.83 300.37 234.85 299.90 234.83 299.47 234.76 299.07 234.65 298.72 234.49 298.39 234.29 298.12 234.04 297.92 233.75 297.77 233.41 297.69 233.03 297.67 232.60 Z M 298.71 228.36 L 298.73 228.84 298.79 229.27 298.90 229.64 299.04 229.95 299.22 230.22 299.43 230.43 299.67 230.59 299.92 230.71 300.20 230.78 300.50 230.80 300.79 230.78 301.06 230.71 301.32 230.59 301.55 230.43 301.77 230.22 301.95 229.96 302.10 229.65 302.20 229.28 302.26 228.86 302.29 228.39 302.26 227.94 302.20 227.54 302.09 227.18 301.95 226.87 301.76 226.60 301.54 226.39 301.30 226.22 301.04 226.10 300.77 226.02 300.48 226.00 300.20 226.02 299.93 226.10 299.68 226.21 299.45 226.38 299.23 226.59 299.04 226.85 298.90 227.16 298.80 227.51 298.73 227.91 298.71 228.36 Z M 313.14 232.00 L 311.95 232.00 311.96 224.52 311.78 224.68 311.57 224.84 311.35 225.00 311.10 225.17 310.83 225.33 310.56 225.48 310.30 225.62 310.05 225.74 309.81 225.85 309.58 225.93 309.58 224.80 309.97 224.61 310.34 224.40 310.69 224.17 311.01 223.93 311.32 223.68 311.61 223.42 311.85 223.16 312.07 222.90 312.24 222.65 312.38 222.40 313.15 222.40 Z M 315.97 229.45 L 317.16 229.30 317.23 229.61 317.32 229.89 317.44 230.14 317.59 230.35 317.76 230.54 317.96 230.69 318.18 230.80 318.43 230.88 318.70 230.93 319.00 230.95 319.37 230.93 319.70 230.86 320.00 230.74 320.27 230.58 320.50 230.37 320.69 230.13 320.84 229.85 320.94 229.55 321.01 229.21 321.03 228.85 321.01 228.50 320.95 228.19 320.85 227.90 320.71 227.65 320.53 227.42 320.31 227.23 320.05 227.09 319.75 226.98 319.41 226.92 319.03 226.90 318.78 226.91 318.56 226.93 318.35 226.98 318.16 227.03 317.98 227.11 317.82 227.20 317.68 227.30 317.54 227.40 317.42 227.52 317.31 227.65 316.12 227.50 317.17 222.55 321.78 222.55 321.78 223.75 318.13 223.75 317.62 226.39 317.95 226.14 318.30 225.95 318.64 225.81 319.00 225.73 319.36 225.70 319.83 225.73 320.27 225.84 320.67 226.01 321.05 226.25 321.40 226.56 321.69 226.92 321.92 227.33 322.09 227.77 322.19 228.25 322.22 228.77 322.19 229.27 322.10 229.75 321.95 230.19 321.74 230.61 321.47 231.00 321.08 231.41 320.64 231.74 320.15 231.97 319.60 232.10 319.00 232.15 318.50 232.12 318.04 232.03 317.62 231.88 317.24 231.68 316.90 231.41 316.60 231.10 316.36 230.74 316.18 230.35 316.05 229.92 315.97 229.45 Z M 327.27 234.70 L 327.28 224.95 328.47 224.95 328.47 226.13 328.62 225.87 328.78 225.65 328.95 225.45 329.12 225.28 329.30 225.13 329.49 225.01 329.70 224.92 329.92 224.85 330.16 224.81 330.41 224.80 330.74 224.82 331.06 224.87 331.36 224.97 331.65 225.10 331.92 225.26 332.17 225.46 332.39 225.70 332.59 225.96 332.76 226.25 332.90 226.57 333.02 226.92 333.11 227.27 333.18 227.64 333.22 228.03 333.23 228.42 333.22 228.84 333.17 229.25 333.10 229.64 332.99 230.01 332.85 230.37 332.69 230.69 332.50 230.99 332.28 231.26 332.04 231.49 331.76 231.69 331.47 231.86 331.18 231.98 330.88 232.08 330.57 232.13 330.26 232.15 330.03 232.14 329.82 232.10 329.61 232.04 329.41 231.95 329.22 231.84 329.04 231.71 328.88 231.57 328.73 231.41 328.59 231.24 328.47 231.06 328.47 234.70 Z M 328.47 228.53 L 328.49 229.00 328.55 229.42 328.66 229.78 328.80 230.10 328.98 230.36 329.20 230.57 329.43 230.74 329.68 230.86 329.95 230.93 330.23 230.95 330.52 230.93 330.79 230.85 331.05 230.73 331.29 230.56 331.51 230.34 331.70 230.07 331.85 229.74 331.96 229.36 332.02 228.93 332.04 228.44 332.02 227.98 331.96 227.56 331.86 227.20 331.71 226.88 331.53 226.61 331.31 226.39 331.08 226.22 330.83 226.10 330.57 226.02 330.29 226.00 330.01 226.03 329.74 226.10 329.49 226.23 329.25 226.41 329.02 226.65 328.82 226.93 328.67 227.26 328.56 227.64 328.49 228.06 328.47 228.53 Z M 334.58 223.60 L 334.58 222.40 335.77 222.40 335.77 223.60 Z M 334.57 232.00 L 334.57 224.95 335.77 224.95 335.76 232.00 Z M 337.54 232.00 L 337.55 224.95 338.74 224.95 338.74 225.93 339.07 225.53 339.44 225.21 339.87 224.98 340.36 224.85 340.89 224.80 341.13 224.81 341.37 224.84 341.59 224.88 341.81 224.95 342.02 225.03 342.21 225.13 342.39 225.23 342.54 225.35 342.67 225.49 342.78 225.63 342.88 225.78 342.96 225.95 343.03 226.12 343.09 226.31 343.14 226.51 343.16 226.66 343.18 226.86 343.19 227.09 343.20 227.36 343.20 227.67 343.20 232.00 342.01 232.00 342.01 227.83 342.01 227.56 341.99 227.32 341.96 227.11 341.92 226.93 341.88 226.77 341.81 226.64 341.73 226.51 341.64 226.40 341.52 226.30 341.39 226.21 341.25 226.13 341.09 226.08 340.93 226.03 340.76 226.01 340.58 226.00 340.28 226.02 340.01 226.08 339.75 226.17 339.51 226.30 339.28 226.47 339.09 226.69 338.93 226.98 338.83 227.34 338.76 227.77 338.74 228.26 338.73 232.00 Z M 352.12 232.00 L 352.13 229.75 347.81 229.75 347.81 228.55 352.43 222.55 353.32 222.55 353.32 228.55 354.51 228.55 354.51 229.75 353.32 229.75 353.32 232.00 Z M 352.13 228.55 L 352.13 224.84 349.28 228.55 Z" />
</svg>
